<svg xmlns="http://www.w3.org/2000/svg" xmlns:xlink="http://www.w3.org/1999/xlink" id="Layer_1" x="0px" y="0px" viewBox="0 0 33 95" style="enable-background:new 0 0 33 95;" xml:space="preserve">
<style type="text/css">
	.st0{fill:none;}
	.st1{fill:#F4E135;}
	.st2{fill:#FCB331;}
	.st3{fill:#F05255;}
	.st4{fill:#D22C33;}
	.st5{fill:#381F0E;}
	.st6{fill:#FAE5BC;}
</style>
<g>
	<polygon class="st0" points="16.2,0.1 32.9,0.1 33.2,0.1 33.2,-2 -0.1,-2 -0.1,0.1 16.2,0.1  "></polygon>
	<path class="st1" d="M31.8,79.2c0,0,0.1,0,0.1-0.1c0.1,0,0.1-0.1,0.2-0.1c0,0,0.1,0,0.1,0c0.1,0,0.2-0.1,0.2-0.1c0.1,0,0.1,0,0.2,0   c0.1,0,0.1,0,0.2,0c0,0,0,0,0,0V52.5l0,0L17.3,63.3c0,0,0,0,0,0c-0.1,0-0.1,0.1-0.2,0.1c-0.1,0-0.1,0.1-0.2,0.1   c-0.1,0-0.1,0-0.2,0.1c-0.1,0-0.1,0-0.2,0.1c-0.1,0-0.1,0-0.2,0c-0.1,0-0.1,0-0.2,0v4.5c2.2,0,3.9,1.8,3.9,3.9s-1.8,3.9-3.9,3.9V90   L31.8,79.2C31.7,79.2,31.8,79.2,31.8,79.2z"></path>
	<path class="st2" d="M0.1,79c0,0,0.1,0,0.1,0c0.1,0,0.1,0.1,0.2,0.1c0,0,0.1,0,0.1,0.1c0,0,0,0,0,0L16.2,90l0,0V76.1c0,0,0,0,0,0   c-2.2,0-3.9-1.8-3.9-3.9s1.8-3.9,3.9-3.9c0,0,0,0,0,0v-4.5c0,0,0,0,0,0c-0.1,0-0.1,0-0.2,0c-0.1,0-0.1,0-0.2,0   c-0.1,0-0.1,0-0.2-0.1c-0.1,0-0.1,0-0.2-0.1c-0.1,0-0.1-0.1-0.2-0.1c-0.1,0-0.1-0.1-0.2-0.1c0,0,0,0,0,0L-0.1,52.8v26.1   c0,0,0,0,0,0C0,78.9,0,78.9,0.1,79z"></path>
	<path class="st3" d="M31.8,48.5c0.1,0,0.1-0.1,0.2-0.1c0.1,0,0.1-0.1,0.2-0.1c0.1,0,0.1,0,0.2-0.1c0.1,0,0.1,0,0.2-0.1   c0.1,0,0.1,0,0.2,0c0.1,0,0.1,0,0.2,0c0,0,0,0,0,0V0.1H16.2V37c2.2,0,3.9,1.8,3.9,3.9c0,2.2-1.8,3.9-3.9,3.9v14.5L31.8,48.5   C31.7,48.5,31.8,48.5,31.8,48.5z"></path>
	<path class="st4" d="M0.1,48.2c0.1,0,0.1,0,0.2,0.1c0.1,0,0.1,0.1,0.2,0.1c0.1,0,0.1,0.1,0.2,0.1c0,0,0,0,0,0l15.5,10.8l0,0V44.8   c0,0,0,0,0,0c-2.2,0-3.9-1.8-3.9-3.9c0-2.2,1.8-3.9,3.9-3.9c0,0,0,0,0,0V0.1h0H-0.1v48.1c0,0,0,0,0,0C0,48.2,0,48.2,0.1,48.2z"></path>
	<polygon class="st5" points="-0.1,78.9 -0.1,78.9 -0.1,78.9  "></polygon>
	<path class="st5" d="M0.6,79.2c0,0-0.1-0.1-0.1-0.1C0.5,79.1,0.6,79.1,0.6,79.2z"></path>
	<path class="st5" d="M0.3,79c0,0-0.1,0-0.1,0C0.2,79,0.2,79,0.3,79z"></path>
	<path class="st5" d="M15.2,94.2c0,0-0.1,0-0.1-0.1C15.1,94.1,15.2,94.1,15.2,94.2z"></path>
	<path class="st5" d="M16.4,94.4c-0.1,0-0.1,0-0.2,0C16.3,94.4,16.3,94.4,16.4,94.4z"></path>
	<path class="st5" d="M16,94.4c-0.1,0-0.1,0-0.2,0C15.9,94.4,15.9,94.4,16,94.4z"></path>
	<path class="st5" d="M15.6,94.3c0,0-0.1,0-0.1,0C15.5,94.3,15.5,94.3,15.6,94.3z"></path>
	<path class="st5" d="M17.1,94.2c-0.1,0-0.1,0.1-0.2,0.1C17,94.2,17.1,94.2,17.1,94.2z"></path>
	<path class="st5" d="M16.8,94.3c-0.1,0-0.2,0.1-0.2,0.1C16.6,94.4,16.7,94.3,16.8,94.3z"></path>
	<path class="st5" d="M32.7,78.9c0.1,0,0.1,0,0.2,0C32.8,78.9,32.7,78.9,32.7,78.9z"></path>
	<path class="st5" d="M32.1,79c-0.1,0-0.1,0.1-0.2,0.1C32,79.1,32.1,79,32.1,79z"></path>
	<path class="st5" d="M32.5,78.9c-0.1,0-0.2,0-0.2,0.1C32.3,78.9,32.4,78.9,32.5,78.9z"></path>
	<path class="st5" d="M15.1,94.1c0,0,0.1,0,0.1,0.1c0.1,0,0.1,0.1,0.2,0.1c0,0,0.1,0,0.1,0c0.1,0,0.2,0.1,0.2,0.1c0.1,0,0.1,0,0.2,0   c0.1,0,0.1,0,0.2,0c0.1,0,0.1,0,0.2,0c0.1,0,0.1,0,0.2,0c0.1,0,0.2,0,0.2-0.1c0,0,0.1,0,0.1,0c0.1,0,0.1-0.1,0.2-0.1   c0,0,0.1,0,0.1-0.1c0.2-0.1,0.4-0.3,0.5-0.5c0.6-0.9,0.4-2.1-0.5-2.8L16.2,90L0.6,79.2c0,0,0,0,0,0c0,0-0.1-0.1-0.1-0.1   c-0.1,0-0.1-0.1-0.2-0.1c0,0-0.1,0-0.1,0c-0.1,0-0.2-0.1-0.2-0.1c0,0,0,0,0,0v4.6L15.1,94.1C15.1,94.1,15.1,94.1,15.1,94.1z"></path>
	<path class="st5" d="M32.9,78.9C32.9,78.9,32.9,78.9,32.9,78.9c-0.1,0-0.1,0-0.2,0c-0.1,0-0.1,0-0.2,0c-0.1,0-0.2,0-0.2,0.1   c0,0-0.1,0-0.1,0c-0.1,0-0.1,0.1-0.2,0.1c0,0-0.1,0-0.1,0.1c0,0,0,0,0,0L16.2,90l0,0l1.1,0.8c0.9,0.6,1.1,1.9,0.5,2.8   c-0.2,0.2-0.3,0.4-0.5,0.5c0,0,0,0,0.1,0l15.5-10.8"></path>
	<path class="st5" d="M0.6,48.5c-0.1,0-0.1-0.1-0.2-0.1C0.5,48.4,0.6,48.4,0.6,48.5z"></path>
	<path class="st5" d="M0.3,48.3c-0.1,0-0.1,0-0.2-0.1C0.2,48.2,0.2,48.3,0.3,48.3z"></path>
	<polygon class="st5" points="-0.1,48.2 -0.1,48.2 -0.1,48.2  "></polygon>
	<path class="st5" d="M16.4,63.7c-0.1,0-0.1,0-0.2,0c0,0,0,0,0,0C16.3,63.7,16.3,63.7,16.4,63.7z"></path>
	<path class="st5" d="M16.9,63.5c0.1,0,0.1-0.1,0.2-0.1C17.1,63.5,17,63.5,16.9,63.5z"></path>
	<path class="st5" d="M16.6,63.7c0.1,0,0.1,0,0.2-0.1C16.7,63.6,16.6,63.6,16.6,63.7z"></path>
	<path class="st5" d="M16,63.7c-0.1,0-0.1,0-0.2,0C15.9,63.7,15.9,63.7,16,63.7z"></path>
	<path class="st5" d="M15.6,63.6c-0.1,0-0.1,0-0.2-0.1C15.5,63.6,15.6,63.6,15.6,63.6z"></path>
	<path class="st5" d="M15.3,63.5c-0.1,0-0.1-0.1-0.2-0.1C15.2,63.4,15.2,63.4,15.3,63.5z"></path>
	<path class="st5" d="M32.5,48.2c-0.1,0-0.1,0-0.2,0.1C32.4,48.2,32.4,48.2,32.5,48.2z"></path>
	<path class="st5" d="M32.1,48.3c-0.1,0-0.1,0.1-0.2,0.1C32,48.3,32.1,48.3,32.1,48.3z"></path>
	<path class="st5" d="M32.7,48.1c0.1,0,0.1,0,0.2,0C32.8,48.1,32.7,48.1,32.7,48.1z"></path>
	<path class="st5" d="M15.1,63.4c0.1,0,0.1,0.1,0.2,0.1c0.1,0,0.1,0.1,0.2,0.1c0.1,0,0.1,0,0.2,0.1c0.1,0,0.1,0,0.2,0.1   c0.1,0,0.1,0,0.2,0c0.1,0,0.1,0,0.2,0c0.1,0,0.1,0,0.2,0c0.1,0,0.1,0,0.2,0c0.1,0,0.1,0,0.2-0.1c0.1,0,0.1,0,0.2-0.1   c0.1,0,0.1-0.1,0.2-0.1c0.1,0,0.1-0.1,0.2-0.1c0.2-0.1,0.4-0.3,0.5-0.5c0.6-0.9,0.4-2.1-0.5-2.8l-1.1-0.8L0.6,48.5c0,0,0,0,0,0   c-0.1,0-0.1-0.1-0.2-0.1c-0.1,0-0.1-0.1-0.2-0.1c-0.1,0-0.1,0-0.2-0.1c-0.1,0-0.1,0-0.2-0.1c0,0,0,0,0,0v4.6L15.1,63.4   C15.1,63.3,15.1,63.3,15.1,63.4z"></path>
	<path class="st5" d="M32.9,48.1c0,0-0.1,0-0.2,0c-0.1,0-0.1,0-0.2,0c-0.1,0-0.1,0-0.2,0.1c-0.1,0-0.1,0-0.2,0.1   c-0.1,0-0.1,0.1-0.2,0.1c-0.1,0-0.1,0.1-0.2,0.1c0,0,0,0,0,0L16.2,59.3l0,0l1.1,0.8c0.9,0.6,1.1,1.9,0.5,2.8   c-0.1,0.2-0.3,0.4-0.5,0.5c0,0,0,0,0,0l15.5-10.8l0,0"></path>
	<path class="st5" d="M20.1,72.2c0-2.2-1.8-3.9-3.9-3.9c0,0,0,0,0,0c-2.2,0-3.9,1.8-3.9,3.9s1.8,3.9,3.9,3.9c0,0,0,0,0,0   C18.4,76.1,20.1,74.3,20.1,72.2z"></path>
	<path class="st6" d="M20.1,40.9c0-2.2-1.8-3.9-3.9-3.9c0,0,0,0,0,0c-2.2,0-3.9,1.8-3.9,3.9c0,2.2,1.8,3.9,3.9,3.9c0,0,0,0,0,0   C18.4,44.8,20.1,43.1,20.1,40.9z"></path>
</g>
</svg>