<svg xmlns="http://www.w3.org/2000/svg" xmlns:xlink="http://www.w3.org/1999/xlink" id="Layer_1" x="0px" y="0px" viewBox="0 0 31 35" style="enable-background:new 0 0 31 35;" xml:space="preserve">
<style type="text/css">
	.st0{fill:#FBA92B;}
	.st1{fill-rule:evenodd;clip-rule:evenodd;fill:#FBA92B;}
</style>
<g>
	<g>
		<path class="st0" d="M9.6,13.7c-0.1,0.1-0.1,0.7,0.3,0.7c0.3,0,0.5-0.6,0.4-0.8C10.1,13.5,9.9,13.5,9.6,13.7z"></path>
		<path class="st0" d="M11,14.4c-0.1,0-0.4,0.3-0.2,0.5c0.2,0.2,0.6,0,0.6-0.1C11.4,14.6,11.3,14.5,11,14.4z"></path>
		<path class="st0" d="M9.7,15.6c-0.2,0-0.6,0.4-0.3,0.7c0.2,0.3,0.8,0.1,0.8-0.2C10.2,15.9,10.1,15.7,9.7,15.6z"></path>
		<g>
			<path class="st0" d="M7.3,5.7C7.3,5.7,7.3,5.7,7.3,5.7C7.3,5.8,7.3,5.7,7.3,5.7C7.3,5.7,7.4,5.7,7.3,5.7c0.1,0.1,0.3,0.1,0.5,0.2     C8.3,6,8.9,6.1,9.7,6.1c0.8,0.1,1.7,0.2,2.7,0.3c0.5,0,1,0.1,1.5,0.1c0.5,0,1.1,0,1.6,0.1c0.5,0,1.1,0,1.6,0.1c0.5,0,1,0,1.6,0     c0.5,0,1-0.1,1.4-0.1c0.5-0.1,0.9-0.1,1.3-0.1c0.4,0,0.8-0.1,1.1-0.1c0.3,0,0.6-0.1,0.8-0.1c0.2,0,0.4-0.1,0.5-0.1c0,0,0,0,0,0     c0,0,0,0,0,0c0,0,0,0,0,0c0-0.1,0.1-0.2,0.2-0.2c0.1,0,0.2,0.1,0.2,0.2c0,0,0,0,0,0.1c0,0,0,0.1-0.1,0.1c0,0-0.1,0.1-0.1,0.1     c-0.1,0.1-0.3,0.2-0.6,0.3c-0.2,0.1-0.5,0.1-0.9,0.2c-0.3,0.1-0.7,0.1-1.1,0.2c-0.4,0-0.8,0.1-1.3,0.1c-0.5,0-1,0-1.5,0     c-0.5,0-1,0-1.6,0.1c-0.5,0-1.1,0-1.6,0.1c-0.5,0-1.1,0-1.6,0c-0.5,0-1.1,0-1.6-0.1c-1,0-2-0.1-2.8-0.2C8.8,6.7,8.1,6.6,7.7,6.4     C7.4,6.3,7.3,6.2,7.1,6.1C7.1,6,7.1,6,7,6C7,5.9,7,5.9,7,5.8c0,0,0,0,0,0C7,5.7,7,5.6,7.1,5.6C7.2,5.6,7.3,5.7,7.3,5.7L7.3,5.7z"></path>
			<path class="st0" d="M5.9,30.8C5.9,30.8,5.9,30.9,5.9,30.8L5.9,30.8L5.9,30.8L5.9,30.8z"></path>
			<path class="st0" d="M24.9,24.2c0-0.6,0-1.3-0.1-1.9c-0.1-1.9,0-3.7-0.1-5.3c-0.1-1.6-0.1-3.2-0.2-4.5c-0.1-1.3-0.1-2.5-0.2-3.5     c-0.1-1.9-0.2-3-0.2-3c0-0.1-0.1-0.1-0.1-0.1c-0.1,0-0.1,0.1-0.1,0.1c0,0,0,1.1,0,3c0,1,0,2.1,0.1,3.5c0,1.3,0.1,2.9,0.1,4.5     c0,1.7,0.2,3.4,0.3,5.3c0,0.9,0,1.2,0.1,2.1L24.9,24.2L24.9,24.2"></path>
			<path class="st0" d="M18.3,32.9c-1.1,0.1-2.2,0.2-3.3,0.2c-2.2-0.1-4.4-0.3-6.4-0.9c-0.5-0.1-1-0.3-1.5-0.5     c-0.2-0.1-0.5-0.2-0.7-0.3C6.3,31.2,6,31,6,30.9l-0.1-0.1l0,0c0,0,0-0.1,0,0l0,0l0,0l0,0c0,0,0,0,0,0c0,0,0,0,0,0l0-0.1     c0-0.1,0-0.2,0-0.4c0-0.3,0-0.5,0-0.8c0-0.5,0-1,0-1.6c0-1,0-2,0-3c0-1,0.1-2,0.1-2.9c0.1-1.9,0.3-3.7,0.4-5.3     c0.1-1.6,0.2-3.2,0.3-4.5C6.9,10.9,7,9.8,7.1,8.8c0.1-1.9,0.2-3,0.2-3c0-0.1,0-0.1-0.1-0.1C7.1,5.6,7,5.7,7,5.8     c0,0,0,0.3-0.1,0.8c0,0.5-0.1,1.3-0.2,2.2c-0.1,1-0.2,2.1-0.3,3.5c-0.1,1.3-0.2,2.8-0.3,4.5C6,18.4,5.9,20.2,5.8,22     C5.7,23,5.7,24,5.6,25c-0.1,1-0.2,2-0.3,3c0,0.5-0.1,1-0.1,1.6c0,0.3,0,0.5,0,0.8c0,0.1,0,0.3,0,0.4l0,0.1c0,0,0,0,0,0.1l0,0.1     l0,0.1c0,0,0.1,0.1,0,0.1l0,0l0.1,0.1c0,0.1,0.1,0.1,0.2,0.2c0.1,0.1,0.1,0.1,0.2,0.1c0.1,0.1,0.2,0.2,0.4,0.2     c0.3,0.1,0.5,0.2,0.8,0.3c0.5,0.2,1,0.4,1.6,0.5c1.1,0.3,2.2,0.5,3.3,0.6c1.1,0.1,2.2,0.2,3.3,0.2c1.4,0,2.7-0.2,4.1-0.4"></path>
			<path class="st0" d="M5.5,26.6c0,0-0.1,0-0.2-0.1c-0.2-0.1-0.4-0.1-0.7-0.2c-0.3-0.1-0.6-0.3-1-0.5c-0.4-0.2-0.8-0.4-1.2-0.8     C2.2,25,2.1,24.9,2,24.8c-0.1-0.1-0.1-0.1-0.2-0.2c-0.1-0.1-0.1-0.1-0.2-0.2l-0.1-0.1l0,0l0,0l0,0l0,0l0,0c0-0.1,0-0.1-0.1-0.2     c0-0.1,0-0.2-0.1-0.2c0-0.1,0-0.2,0-0.2c-0.1-0.6-0.2-1.2-0.2-1.9c-0.1-1.3-0.1-2.7,0.1-4.1c0.1-0.7,0.2-1.4,0.3-2     c0.1-0.7,0.2-1.3,0.4-2c0.1-0.6,0.2-1.3,0.4-1.8c0.1-0.3,0.2-0.6,0.4-0.8c0-0.1,0.1-0.1,0.1-0.2C2.9,10.6,3,10.5,3,10.5l0.1-0.1     l0,0l0,0c0,0,0,0,0,0l0,0l0,0c0.1,0,0.1-0.1,0.2-0.1c0.5-0.2,1-0.4,1.4-0.5c0.4-0.1,0.8-0.2,1.1-0.2c0.6-0.1,0.9-0.1,0.9-0.1     C6.9,9.4,7,9.4,7,9.5c0,0.1,0,0.2-0.1,0.2c0,0-0.1,0-0.2,0.1c-0.2,0-0.4,0.1-0.7,0.2c-0.3,0.1-0.6,0.2-1,0.3     c-0.4,0.1-0.8,0.3-1.3,0.5c-0.1,0-0.1,0.1-0.2,0.1l-0.1,0.1L3.2,11l-0.1,0.1c-0.1,0.2-0.3,0.4-0.4,0.7c-0.2,0.5-0.4,1.1-0.5,1.7     c-0.1,0.6-0.2,1.3-0.3,2c-0.1,0.7-0.1,1.3-0.2,2c0,0.7-0.1,1.4-0.1,2c0,0.7,0,1.3,0.1,2c0,0.6,0.1,1.2,0.3,1.8c0,0.1,0,0.1,0,0.2     c0,0.1,0,0.1,0,0.2c0,0.1,0,0.1,0.1,0.2l0,0l0,0l0,0c0,0,0,0,0,0l0,0c0,0,0,0,0,0c0.1,0.1,0.3,0.3,0.5,0.5     c0.4,0.3,0.8,0.6,1.1,0.8c0.3,0.2,0.7,0.4,0.9,0.5c0.3,0.1,0.5,0.3,0.6,0.3c0.1,0.1,0.2,0.1,0.2,0.1c0.1,0,0.1,0.1,0.1,0.2     C5.6,26.6,5.6,26.6,5.5,26.6z"></path>
			<path class="st0" d="M6.6,12.4c0,0-0.1,0-0.2,0c-0.1,0-0.3,0.1-0.4,0.1c-0.2,0-0.4,0.1-0.7,0.2c-0.1,0-0.2,0.1-0.3,0.1     c0,0-0.1,0.1-0.1,0.1c0,0,0,0,0,0.1c0,0,0,0,0,0.1l0,0.1c0,0.1,0,0.2-0.1,0.2c0,0.2-0.1,0.4-0.1,0.5c-0.1,0.4-0.2,0.8-0.2,1.2     c-0.1,0.4-0.1,0.8-0.2,1.3c-0.1,0.4-0.1,0.9-0.2,1.3c-0.1,0.9-0.2,1.8-0.2,2.6c0,0.4,0,0.8,0.1,1.2C3.9,21.8,4,22,4,22.1     c0,0.1,0,0.2,0.1,0.2l0,0l0,0l0,0l0,0l0,0l0,0c0,0,0,0,0,0l0,0c0.1,0.1,0.1,0.1,0.2,0.2c0,0,0.1,0.1,0.1,0.1c0,0,0.1,0.1,0.2,0.1     C4.6,23,4.7,23,4.7,23c0.1,0.1,0.2,0.1,0.3,0.2c0.1,0.1,0.2,0.1,0.3,0.1c0.2,0.1,0.3,0.2,0.4,0.2c0.1,0,0.1,0.1,0.1,0.1     c0.1,0,0.1,0.1,0.1,0.2c0,0.1-0.1,0.1-0.2,0.1l0,0c0,0-0.2,0-0.6-0.2c-0.2-0.1-0.4-0.2-0.7-0.3c-0.1,0-0.1-0.1-0.2-0.1     c-0.1,0-0.1-0.1-0.2-0.2C4,23.1,3.9,23.1,3.9,23c-0.1-0.1-0.1-0.1-0.2-0.2l0,0l0,0l0,0l0,0l0,0l0,0c0,0,0-0.1,0-0.1l0-0.1     c0-0.1-0.1-0.2-0.1-0.3c0-0.2,0-0.4,0-0.6c0-0.4,0-0.8,0-1.2c0-0.4,0-0.9,0-1.3c0-0.4,0-0.9,0-1.4c0-0.5,0.1-0.9,0.1-1.3     c0-0.4,0.1-0.9,0.1-1.3c0.1-0.4,0.1-0.8,0.1-1.2C4,13.7,4,13.5,4,13.3c0-0.1,0-0.2,0.1-0.3c0,0,0-0.1,0-0.1c0,0,0-0.1,0.1-0.2     c0,0,0,0,0-0.1l0,0l0,0c0,0,0-0.1,0,0l0,0l0,0c0-0.1,0.1-0.1,0.1-0.2c0.1-0.1,0.2-0.1,0.3-0.2c0.2-0.1,0.3-0.1,0.5-0.1     C5.5,12,5.7,12,5.9,12c0.4,0,0.6,0,0.6,0l0,0c0.1,0,0.2,0.1,0.1,0.2C6.7,12.3,6.7,12.4,6.6,12.4z"></path>
			<path class="st0" d="M23,6.5C23,7.3,23,8.1,23,8.9c0,0.8,0,1.6,0.1,2.4c0,0.8,0,1.6,0,2.4c0,0.8,0,1.6,0,2.4l0,2.4     c0,0.8,0,1.6,0,2.4c0,0.8,0,1.6,0,2.4c0,0.8,0.1,1.6,0.1,2.4c0,0.4,0,0.8,0,1.2c0,0.4,0,0.8,0,1.2l0,0.3c0,0.1,0,0.2,0,0.4     c0,0,0,0.1,0,0.1c0,0-0.1,0.1-0.1,0.1l0,0L23,29l-0.2,0.1c-0.1,0-0.2,0.1-0.3,0.1c-0.4,0.2-0.8,0.3-1.2,0.4     c-0.8,0.2-1.6,0.4-2.4,0.5c-0.8,0.1-1.6,0.2-2.4,0.3c-0.8,0.1-1.6,0.1-2.4,0c-0.8,0-1.6-0.1-2.4-0.2c-0.8-0.1-1.6-0.3-2.4-0.5     c-0.8-0.2-1.5-0.6-2.2-1l0,0C7,28.8,7,28.7,7,28.5L7.3,23c0-0.5,0.1-0.9,0.1-1.4c0-0.5,0.1-0.9,0.1-1.4c0-0.5,0-0.9,0-1.4l0-1.4     c0-0.9,0.1-1.8,0.1-2.8L7.8,12l0.1-1.4L8,9.3c0-0.5,0.1-0.9,0.1-1.4l0.1-1.4c0-0.1,0.1-0.1,0.1-0.1c0.1,0,0.1,0.1,0.1,0.1l0,1.4     c0,0.5,0,0.9,0,1.4l0,1.4l0,1.4l-0.1,2.8c0,0.9-0.1,1.8-0.2,2.8L8,18.9c0,0.5-0.1,0.9-0.1,1.4c0,0.5,0,0.9-0.1,1.4     c0,0.5,0,0.9-0.1,1.4l-0.2,5.5l-0.1-0.3c0.7,0.4,1.4,0.7,2.1,1c0.7,0.3,1.5,0.5,2.3,0.6c0.8,0.1,1.6,0.2,2.4,0.2     c0.8,0,1.6,0,2.4-0.1c1.6-0.1,3.1-0.4,4.6-0.9c0.4-0.1,0.7-0.2,1.1-0.4c0.1,0,0.2-0.1,0.2-0.1c0,0,0.1,0,0.1-0.1l0.1,0l0,0     c0,0-0.1,0-0.1,0.1c0,0,0,0.1,0,0.1c0,0,0-0.2,0-0.2l0-0.3c0-0.4,0-0.8,0-1.2c0-0.4,0-0.8,0-1.2l0.1-2.4c0-0.8,0-1.6,0-2.4     c0-0.8,0-1.6,0-2.4l0-2.4c0-0.8,0-1.6,0-2.4c0-0.8,0-1.6,0-2.4c0-0.8,0-1.6,0-2.4c0-0.8,0-1.6,0-2.4c0-0.1,0.1-0.1,0.1-0.1     C22.9,6.4,23,6.5,23,6.5z"></path>
			<path class="st0" d="M22.8,11.7c0,0-0.1,0-0.2,0.1c-0.1,0-0.3,0.1-0.5,0.1C22,12,21.8,12,21.5,12.1c-0.3,0.1-0.6,0.1-0.9,0.2     c-0.3,0.1-0.7,0.1-1.1,0.1c-0.4,0-0.8,0-1.3,0.1c-0.4,0-0.9,0-1.3,0c-0.5,0-0.9,0-1.4,0c-0.2,0-0.5,0-0.7,0     c-0.2,0-0.5-0.1-0.7-0.1c-0.2,0-0.5-0.1-0.7-0.1c-0.2,0-0.4-0.1-0.7-0.1c-0.2,0-0.4,0-0.6-0.1c-0.2,0-0.4,0-0.6-0.1     c-0.2,0-0.4,0-0.6-0.1c-0.2,0-0.4-0.1-0.5-0.1c-0.3-0.1-0.7-0.2-0.9-0.2c-0.3-0.1-0.5-0.2-0.7-0.2c-0.4-0.1-0.6-0.2-0.6-0.2     c-0.1,0-0.1-0.1-0.1-0.2c0-0.1,0.1-0.1,0.2-0.1l0,0c0,0,0.2,0,0.6,0.1c0.2,0,0.4,0.1,0.7,0.2c0.3,0.1,0.6,0.1,0.9,0.2     c0.3,0.1,0.7,0.2,1.1,0.3c0.2,0,0.4,0.1,0.6,0.1c0.2,0,0.4,0.1,0.6,0.1c0.2,0,0.4,0.1,0.6,0.1c0.2,0,0.4,0,0.7,0     c0.2,0,0.5,0,0.7,0c0.2,0,0.5,0,0.7,0c0.5,0,0.9,0,1.4,0c0.4,0,0.9,0,1.3-0.1c0.4,0,0.8-0.1,1.2-0.1c0.4,0,0.8-0.1,1.1-0.1     c0.3,0,0.7-0.1,0.9-0.1c0.3,0,0.5,0,0.7-0.1c0.4,0,0.6,0,0.6,0c0.1,0,0.2,0.1,0.2,0.2C22.9,11.6,22.9,11.7,22.8,11.7L22.8,11.7z"></path>
			<path class="st0" d="M7,5.7c0.1-0.3,0.3-0.6,0.4-0.8c0.1-0.1,0.2-0.3,0.3-0.4C7.8,4.4,7.9,4.3,8,4.2c0.1-0.1,0.2-0.2,0.4-0.3     c0.1-0.1,0.3-0.2,0.4-0.3C9,3.5,9.1,3.5,9.2,3.4l0.1,0c0,0,0,0,0.1,0l0.1,0l0.2,0c0.2,0,0.3,0,0.5,0c0.2,0,0.3,0,0.5,0     c0.2,0,0.3,0,0.5,0.1c0.2,0,0.3,0.1,0.5,0.1l0.9,0.2c0.2,0,0.3,0.1,0.4,0.1c0.1,0.1,0.3,0.1,0.4,0.2l-0.5,0.2     c0.1-0.2,0.2-0.4,0.3-0.6c0.1-0.1,0.1-0.2,0.2-0.3c0.1-0.1,0.1-0.2,0.2-0.3c0.1-0.1,0.1-0.2,0.2-0.3c0.1-0.1,0.2-0.2,0.2-0.3     c0.2-0.2,0.3-0.3,0.5-0.5c0.2-0.1,0.4-0.3,0.6-0.4c0.2-0.1,0.4-0.2,0.7-0.3c0.1,0,0.2-0.1,0.3-0.1l0.2,0l0.2,0     c0.1,0,0.2,0,0.4-0.1c0.1,0,0.2,0,0.4,0l0.2,0l0,0l0.1,0l0.1,0c0.1,0,0.2,0,0.3,0l0.1,0l0.1,0c0.1,0,0.1,0,0.2,0     c0.1,0,0.2,0.1,0.4,0.1L19,1.4c0.1,0.1,0.2,0.1,0.3,0.2c0.1,0.1,0.2,0.1,0.3,0.2c0.1,0.1,0.2,0.2,0.3,0.2     c0.2,0.2,0.3,0.4,0.5,0.5l0.2,0.3l0.2,0.3c0.1,0.2,0.2,0.4,0.3,0.6c0.1,0.2,0.2,0.4,0.3,0.7l-0.4-0.2c0.1,0,0.2-0.1,0.3-0.1     c0.1,0,0.2,0,0.2-0.1c0.2,0,0.3,0,0.5,0c0.1,0,0.2,0,0.3,0c0.1,0,0.2,0,0.3,0c0.1,0,0.2,0,0.3,0.1c0.1,0,0.2,0,0.3,0.1     c0.1,0,0.2,0.1,0.2,0.1l0.2,0.1c0.1,0.1,0.1,0.1,0.2,0.2c0.1,0.1,0.1,0.1,0.2,0.2c0,0.1,0.1,0.1,0.1,0.2L24,5.3     c0,0.1,0.1,0.2,0.1,0.2l0.1,0.2c0,0.1,0,0.1-0.1,0.2c-0.1,0-0.1,0-0.1-0.1l0,0l-0.1-0.2c0-0.1-0.1-0.1-0.1-0.2l-0.1-0.2     c0-0.1-0.1-0.1-0.1-0.2c0,0-0.1-0.1-0.1-0.1c-0.1,0-0.1-0.1-0.2-0.1L23,4.8c-0.1,0-0.1,0-0.2-0.1c-0.1,0-0.1,0-0.2,0     c-0.1,0-0.1,0-0.2,0c-0.1,0-0.1,0-0.2,0c-0.1,0-0.1,0-0.2,0c-0.1,0-0.3,0-0.4,0.1c-0.1,0-0.1,0-0.2,0l-0.2,0.1l0,0     c-0.2,0-0.3-0.1-0.4-0.2c0,0,0,0,0,0c0-0.2-0.1-0.4-0.1-0.6c0-0.2-0.1-0.4-0.2-0.6l-0.2-0.3L20,2.8c-0.1-0.2-0.3-0.3-0.4-0.5     c-0.1-0.1-0.2-0.1-0.2-0.2c-0.1-0.1-0.2-0.1-0.3-0.2c-0.1,0-0.2-0.1-0.3-0.1l-0.3-0.1c-0.1,0-0.2,0-0.3-0.1c0,0-0.1,0-0.1,0     l-0.1,0l-0.1,0c-0.1,0-0.2,0-0.3-0.1l-0.1,0l0,0l0,0l0,0c0,0,0,0,0,0l0,0l0,0l-0.2,0c-0.1,0-0.2,0-0.3,0c-0.1,0-0.2,0-0.3,0     c-0.1,0-0.1,0-0.2,0l-0.2,0c-0.1,0-0.2,0.1-0.3,0.1c-0.2,0.1-0.4,0.2-0.6,0.3c-0.2,0.1-0.3,0.2-0.5,0.4c-0.2,0.1-0.3,0.3-0.5,0.4     C14.4,2.9,14.4,3,14.3,3c-0.1,0.1-0.1,0.2-0.2,0.3c-0.1,0.2-0.2,0.4-0.3,0.6c-0.1,0.2-0.2,0.4-0.3,0.6l0,0     c-0.1,0.2-0.3,0.2-0.4,0.2c0,0,0,0,0,0c-0.1-0.1-0.2-0.2-0.3-0.2c-0.1-0.1-0.2-0.2-0.4-0.2C12,4,11.8,3.8,11.5,3.8     c-0.1,0-0.3-0.1-0.4-0.1c-0.1,0-0.3,0-0.4,0c-0.1,0-0.3,0-0.4,0c-0.1,0-0.3,0-0.4,0.1L9.6,3.7l-0.1,0c0,0,0,0,0,0l-0.1,0     C9.3,3.9,9.1,3.9,9,4C8.9,4.1,8.8,4.1,8.7,4.2C8.6,4.3,8.4,4.4,8.3,4.5C8.2,4.6,8.1,4.7,8,4.8C7.9,4.9,7.8,5,7.7,5.1     C7.6,5.3,7.4,5.6,7.3,5.8l0,0c0,0.1-0.1,0.1-0.2,0.1C7,5.8,7,5.8,7,5.7z"></path>
			<path class="st0" d="M16.5,2.3c0,0-0.2,0.1-0.4,0.3c-0.1,0-0.1,0.1-0.2,0.1c-0.1,0-0.1,0.1-0.2,0.1c-0.1,0.1-0.3,0.2-0.4,0.3     c-0.1,0.1-0.1,0.1-0.2,0.2c-0.1,0.1-0.1,0.1-0.2,0.2c-0.1,0.1-0.1,0.1-0.2,0.2c-0.1,0.1-0.1,0.1-0.1,0.2c0,0.1-0.1,0.1-0.1,0.1     c0,0-0.1,0.1-0.1,0.1c-0.1,0.1-0.1,0.1-0.1,0.1l0,0c-0.1,0.1-0.2,0.1-0.3,0c-0.1,0-0.1-0.1-0.1-0.2c0,0,0-0.1,0-0.1     c0-0.1,0.1-0.2,0.1-0.4c0-0.1,0.1-0.2,0.1-0.2c0-0.1,0.1-0.2,0.2-0.2c0.1-0.2,0.3-0.3,0.4-0.5c0.3-0.3,0.7-0.5,1-0.6     C16,2.1,16.1,2,16.2,2c0.1,0,0.2,0,0.2,0c0.1,0,0.2,0,0.2,0.1C16.6,2.2,16.6,2.3,16.5,2.3z"></path>
			<path class="st0" d="M11.3,4.5c0,0-0.1,0-0.1,0c-0.1,0-0.2,0-0.4,0c-0.1,0-0.2,0-0.3,0c-0.1,0-0.2,0-0.3,0c-0.1,0-0.2,0-0.3,0     c-0.1,0-0.2,0-0.3,0.1c-0.1,0-0.2,0-0.3,0.1c0,0-0.1,0-0.1,0c0,0-0.1,0-0.1,0.1c0,0-0.1,0-0.1,0.1c0,0-0.1,0-0.1,0.1     c0,0-0.1,0-0.1,0.1c0,0-0.1,0.1-0.1,0.1C8.6,5.1,8.5,5.2,8.5,5.2c0,0-0.1,0.1-0.1,0.1C8.3,5.4,8.2,5.4,8.2,5.4l0,0     C8.1,5.5,8,5.5,8,5.4c0-0.1-0.1-0.1,0-0.2c0,0,0-0.1,0.1-0.2C8,5,8.1,5,8.1,4.9c0-0.1,0.1-0.1,0.2-0.2c0,0,0.1-0.1,0.1-0.1     c0,0,0.1-0.1,0.1-0.1c0.1-0.1,0.2-0.2,0.3-0.2c0.1,0,0.1-0.1,0.2-0.1C9,4.1,9,4.1,9.1,4.1C9.2,4,9.3,4,9.5,3.9     c0.1,0,0.3,0,0.4-0.1c0.1,0,0.3,0,0.4,0c0.1,0,0.2,0,0.3,0c0.1,0,0.2,0,0.3,0.1c0.2,0,0.3,0.1,0.4,0.1c0.1,0,0.2,0.1,0.2,0.1     c0.1,0,0.1,0.1,0.1,0.2C11.5,4.5,11.4,4.6,11.3,4.5z"></path>
			<path class="st0" d="M17.6,2.2C17.6,2.2,17.6,2.2,17.6,2.2c0,0-0.1,0.1-0.1,0.1c0,0-0.1,0-0.1,0c0,0-0.1,0-0.1,0c0,0-0.1,0-0.1,0     c0,0-0.1,0-0.1,0c-0.1,0-0.1-0.1-0.1-0.1l-0.1,0c-0.1-0.1-0.1-0.2-0.1-0.3c0,0,0-0.1,0.1-0.1c0,0,0,0,0.1,0c0,0,0,0,0.1,0     c0.1,0,0.1,0,0.2,0c0.1,0,0.2,0,0.3,0.1c0,0,0.1,0.1,0.1,0.1c0,0,0,0,0,0l0,0.1C17.7,2,17.7,2.1,17.6,2.2z"></path>
			<path class="st0" d="M21.4,13.6c0,0,0,0.1,0,0.2c0,0.1,0,0.4,0,0.6c0,0.5,0,1.2,0,1.9c0,0.7,0,1.4-0.1,1.9c0,0.3,0,0.5,0,0.6     c0,0.1,0,0.2,0,0.2c0,0.1-0.1,0.1-0.1,0.1c-0.1,0-0.1-0.1-0.1-0.1c0,0,0-0.1,0-0.2c0-0.1,0-0.4,0-0.6c0-0.5,0-1.2,0-1.9     c0-0.7,0-1.4,0.1-1.9c0-0.3,0-0.5,0-0.6c0-0.1,0-0.2,0-0.2c0-0.1,0.1-0.1,0.1-0.1C21.4,13.5,21.4,13.5,21.4,13.6z"></path>
			<path class="st0" d="M20.3,15.7c0,0,0,0.2,0.1,0.5c0,0.3,0,0.7,0,1.2c0,0.4,0,0.9-0.1,1.2c0,0.3-0.1,0.5-0.1,0.5     c0,0.1-0.1,0.1-0.1,0.1c-0.1,0-0.1-0.1-0.1-0.1c0,0,0-0.2-0.1-0.5c0-0.3,0-0.7,0-1.2c0-0.4,0-0.9,0.1-1.2c0-0.3,0.1-0.5,0.1-0.5     c0-0.1,0.1-0.1,0.1-0.1C20.3,15.6,20.3,15.7,20.3,15.7z"></path>
		</g>
	</g>
	<g>
		<path class="st1" d="M29.9,20C29.9,19.9,29.9,19.9,29.9,20c-0.1-0.1-0.1-0.2-0.1-0.2c-0.1-0.2-0.2-0.3-0.4-0.4    c-0.4-0.1-0.8,0-1.1,0.2c-0.7,0.4-1.1,1.1-1.4,1.9c-0.1,0.2-0.1,0.5-0.2,0.7c0,0.1,0,0.2,0,0.4c0,0.1,0,0.1,0,0.2c0,0,0,0,0,0    c-0.6,0.1-1.4,0.5-1.6,1.1c-0.4,0.1-0.8,0.3-1.1,0.6c-0.4,0.4-0.7,0.9-0.8,1.4c-0.4,1.1-0.3,2.3-0.7,3.4c-0.3,0.9-0.9,1.6-1.7,2.1    C20,31.8,19.1,32,18.2,32c-0.6,0-1.2-0.1-1.8,0c-0.5,0.1-0.9,0.3-1.2,0.7c0,0,0,0,0,0c0,0,0,0,0,0C15,32.7,15,32.8,15,32.9    c0,0,0,0,0,0c0,0,0,0,0,0.1c0,0,0,0.1,0,0.1c0,0.1,0.1,0.1,0.1,0.1c0.2,0,0.3-0.1,0.5-0.1c0.2,0,0.3,0,0.5,0c0.3,0,0.7,0,1,0.1    c0.7,0.1,1.4,0.3,2.1,0.4c1.5,0.2,3.1-0.2,4.6-0.6c1.3-0.4,2.7-0.9,3.7-1.9c0.9-0.9,1.5-2,1.8-3.3c0.2-0.6,0.3-1.3,0.3-1.9    c0-0.7,0-1.5-0.5-2c-0.1-0.1-0.2-0.2-0.4-0.3c0,0,0,0,0,0c0-0.1-0.1-0.2-0.1-0.3c-0.1-0.2-0.2-0.3-0.4-0.4    c-0.1-0.1-0.3-0.2-0.5-0.2c0,0,0-0.1,0-0.1c0-0.1,0-0.3,0.1-0.4c0.1-0.2,0.2-0.5,0.3-0.7c0.3-0.5,0.7-0.8,1.2-1    c0.1-0.1,0.3-0.1,0.4-0.1C29.9,20.2,30,20.1,29.9,20L29.9,20z M24.9,24.2c0.1,0,0.2-0.1,0.2-0.1c0,0,0,0,0,0c0,0.1,0,0.1,0,0.2    c0,0.1,0.1,0.1,0.1,0.1c0,0.1,0,0.1,0.1,0.1c0.1,0.1,0.3,0.2,0.4,0.2c0.3,0.1,0.7,0.1,1,0.1c0.7,0,1.4-0.1,2.1-0.4    c0.2-0.1,0.1-0.3,0-0.3l0,0l0,0c0-0.1,0-0.2,0-0.3c0.5,0.4,0.5,1.1,0.5,1.6c0,0.6-0.1,1.2-0.2,1.8c-0.3,1.2-0.8,2.3-1.6,3.2    c-0.9,1-2.2,1.5-3.5,2c-1.4,0.5-2.9,0.9-4.4,0.7c-1.3-0.1-2.7-0.7-4-0.4c-0.1,0-0.2,0-0.3,0.1c0.3-0.3,0.6-0.5,1-0.6    c0.5-0.1,1.1,0,1.7,0c0.5,0,1,0,1.5-0.1c0.5-0.1,0.9-0.3,1.3-0.5c0.8-0.5,1.5-1.2,1.9-2c0.5-1,0.5-2.1,0.8-3.2    C23.6,25.6,24,24.6,24.9,24.2 M29.5,19.9L29.5,19.9c-0.1,0-0.3,0.1-0.4,0.1c-0.5,0.2-0.9,0.6-1.2,1.1c-0.2,0.3-0.3,0.6-0.3,0.9    c0,0.1,0,0.3,0,0.4c0,0.1,0,0.3,0.1,0.4c0,0,0.1,0,0.1,0c0,0,0.1,0.1,0.2,0.1C28,23,28,23,28.1,23c0.1,0.1,0.2,0.2,0.3,0.3    c0.1,0.2,0.1,0.3,0.2,0.5c0,0.1,0,0.2,0,0.3c0,0,0,0.1,0,0.1c-0.5,0.2-1,0.3-1.6,0.3c-0.3,0-0.6,0-0.9-0.1c-0.2,0-0.5,0-0.6-0.2    c0,0,0,0,0-0.1c0-0.1,0-0.2,0-0.3c0,0,0-0.1,0-0.1c0.1-0.2,0.2-0.3,0.3-0.4c0.3-0.2,0.6-0.4,1-0.5c0,0.1,0.1,0.1,0.2,0    c0.1-0.2,0.1-0.4,0.1-0.5c0-0.2,0.1-0.4,0.1-0.5c0.1-0.3,0.2-0.7,0.4-1c0.3-0.5,0.8-1,1.4-1.1c0.1,0,0.3,0,0.4,0.1    C29.5,19.8,29.6,19.9,29.5,19.9C29.6,19.9,29.5,19.9,29.5,19.9z"></path>
	</g>
</g>
</svg>