<?xml version="1.0" encoding="utf-8"?>
<!-- Generator: Adobe Illustrator 23.1.0, SVG Export Plug-In . SVG Version: 6.00 Build 0)  -->
<svg version="1.1" id="Layer_1" xmlns="http://www.w3.org/2000/svg" xmlns:xlink="http://www.w3.org/1999/xlink" x="0px" y="0px"
	 viewBox="0 0 982 607" style="enable-background:new 0 0 982 607;" xml:space="preserve">
<style type="text/css">
	.st0{fill:#FFFFFF;}
	.st1{fill:#FCAF17;}
	.st2{fill:#FFDD00;}
	.st3{fill:#2BB673;}
	.st4{fill:#006F4A;}
	.st5{fill:#BE1E2D;}
	.st6{opacity:0.4;fill:#FFFFFF;enable-background:new    ;}
	.st7{clip-path:url(#SVGID_2_);}
	.st8{fill:#1D1E1C;}
</style>
<path class="st0" d="M897.1,454.4c0-8.9-7.2-16.1-16.1-16.1c-2.4,0-4.7,0.5-6.7,1.5L873,430c0,0,22,5,24-14s-30-18-30-18h-80
	c0,0-31-105-51-136S635,161,561,147c0,0,37-8,37-41s-40-44-40-44s-18,4-33-5s-36-17-56,15c0,0-17,28-24,51s-20,28-57,48
	c0,0-120,46-148,222h-98c0,0-22,5-22,19s12,34,11,46s1,44,1,44s-7,36,21,37s155,0,155,0s32,52,93,5l148-1c0,0,39,58,91,4l201-6
	c0,0,36,4,44-20l-6.7-50.7c0.9,0.1,1.8,0.2,2.7,0.2C889.9,470.5,897.1,463.3,897.1,454.4z"/>
<g>
	<g>
		<path d="M511,504.5c-1.8-0.1-6.4,0.6-8,0c-2.6-1-1.9-0.9-2-4c-0.3-4.5,0-9,0-13.5c0-9.5-0.8-17.8-0.8-27.2
			c0-6.3,4.2-21.6-1.5-25.9c-5.8-4.4-21.9-0.3-27.8,1c0,0-0.8-0.1-0.8,0.8c0,0.4,0,0.7,0,1.1c6.1-1.5,21.2-5,26.8-0.8
			c5.7,4.3,1.5,19.6,1.5,25.9c0,9.4,0.8,17.8,0.8,27.2c0,4.5-0.3,9.1,0,13.5c0.2,3.1-0.5,3,2.1,4c1.6,0.6,6.3,0,8,0
			c0.1,2.1-0.4,4.2-0.6,5.9c-0.1,0.8,0.2,4.1,0.1,6c0.7-0.1,1.3-0.3,1.5-0.7c0.6-0.9,0-6.3,0.1-7.4
			C510.6,508.7,511.1,506.6,511,504.5z"/>
		<path d="M229.3,487.3c0.2-2.2,0.5-5.6-1.1-7.1c-1.8-1.8-4.9-1.2-7.3-1.2c-2,0-6.7-0.9-7.8,0.9c-0.2,0.3-0.2,0.7-0.2,1.2
			c1.9-0.4,4.7,0,6.2,0c2.4,0,5.5-0.5,7.3,1.2c1.6,1.5,1.3,5,1.1,7.1c-0.6,5.8-1,11.8-0.8,17.9c0.1,2.4,1.6,5.6,0.8,8.2
			c0,0.1-0.1,0.2-0.2,0.3c0.9-0.6,1.6-1.3,1.9-2.4c0.8-2.6-0.7-5.7-0.8-8.2C228.3,499.1,228.7,493.1,229.3,487.3z"/>
		<path d="M560.2,462c7.6,3.4,9.7,10.1,11.1,18.1c0.7,4.4,1,8.8,1,13.6c0,4.5-1.6,8.9-1.1,13.2c3.7-0.3,7,1,10.3,1.3
			c0.3,2.4,1,8.2,0.1,11c0.6-0.3,1.2-0.7,1.5-1.4c1.3-2.4,0.5-9.1,0.1-11.7c-3.3-0.2-6.6-1.6-10.3-1.3c-0.5-4.3,1.1-8.7,1.1-13.2
			c0.1-4.8-0.3-9.2-1-13.6c-1.4-8-3.5-14.7-11.1-18.1c-11.4-5.1-32.3-2.7-40.6,8.6C530.6,459.1,549.5,457.2,560.2,462z"/>
		<path d="M872,504.2c-3.2-0.1-4.9,0.9-4.9-2.8c0-2.8,0-5.7,0-8.5c0-11.2,1.9-25.8-9.6-31.9c-9.6-5.1-21.9-3.6-31.8-0.2
			c-4.4,1.5-8.3,4.4-11.1,8c2.5-2.6,5.8-4.7,9.3-5.9c9.9-3.4,22.2-4.9,31.8,0.2c11.4,6.1,9.6,20.6,9.6,31.9c0,2.8,0,5.7,0,8.5
			c0,3.7,1.7,2.7,4.9,2.8c3.4,0.1,3.9,1.1,3.4,4.4c-0.3,1.7,0,4.7-0.7,6.6c0.5-0.3,0.9-0.6,1.3-1.1c1.3-1.7,0.9-5.6,1.2-7.7
			C875.9,505.3,875.4,504.4,872,504.2z"/>
		<path d="M296.1,504.2c-3.2-0.1-4.9,0.9-4.9-2.8c0-2.8,0-5.7,0-8.5c0-11.2,1.9-25.8-9.6-31.9c-9.6-5.1-21.9-3.6-31.8-0.2
			c-4.4,1.5-8.7,4.6-11.4,8.3c2.7-2.8,6.1-5,9.7-6.2c9.9-3.4,22.2-4.9,31.8,0.2c11.4,6.1,9.6,20.6,9.6,31.9c0,2.8,0,5.7,0,8.5
			c0,3.7,1.7,2.7,4.9,2.8c3.4,0.1,3.9,1.1,3.4,4.4c-0.3,1.7,0,4.7-0.7,6.6c0.5-0.3,0.9-0.6,1.3-1.1c1.3-1.7,0.9-5.6,1.2-7.7
			C300,505.3,299.5,504.4,296.1,504.2z"/>
		<path d="M463.9,504.8c-2-0.2-4-0.5-6-0.5c1.7-8,2.4-19.6,1-28c-1.3-7.6-6.4-12.6-13.3-15.3c-9.2-3.7-16.8-4.6-26.4-1
			c-4.1,1.5-8.3,3.5-11.5,6.5c-0.5,0.5-1.3,1.3-2,2.3c0.1-0.1,0.1-0.1,0.2-0.2c3.2-3,7.4-4.9,11.5-6.5c9.6-3.6,17.1-2.6,26.4,1
			c6.9,2.7,12,7.8,13.3,15.4c1.4,8.3,0.7,20-1,28c2,0,4,0.3,6,0.5c3.3,0.3,3.1-0.5,4,2.6c0.6,2.1,0.6,6.9-0.5,9.6
			c0.3-0.2,0.7-0.5,1-0.7c1.9-1.9,2.1-8.4,1.3-10.9C467,504.3,467.2,505.2,463.9,504.8z"/>
		<path d="M356.7,507.1c0.6-1.3,0-5-0.1-6.5c-6.5,0-19.2-1-25.9-0.8c-0.1,0.7-0.1,1.4-0.2,2.1c6.9-0.1,18.3,0.8,24.2,0.8
			c0.1,1.3,0.6,4.5,0.2,6.1C355.6,508.5,356.1,508.2,356.7,507.1z"/>
		<path d="M721.9,472.9c-3-8.7-14.2-13-22.6-13.4c-8.7-0.4-20.8,3.2-26.4,10.8c6.1-6.2,16.7-9,24.6-8.7c8.4,0.4,19.5,4.7,22.6,13.4
			c1.5,4.3,2.8,8.9,3.7,13.4c0.2,1,0.6,2.4,0.4,3.6c0.3-0.1,0.6-0.2,0.8-0.3c1.6-1.2,1-3.8,0.6-5.3
			C724.7,481.8,723.4,477.2,721.9,472.9z"/>
		<path d="M790.6,435.7c4.1,1.8,0.6,9.5-1.1,12.1c0,0.1-0.1,0.1-0.1,0.2c0.7-0.7,1.3-1.4,1.9-2.3c1.8-2.7,5.2-10.3,1.1-12.1
			c-1.6-0.7-4.3-1.4-5.8-0.5c-0.8,0.5-1.2,1.2-1.5,2C786.6,434.4,789.1,435,790.6,435.7z"/>
		<path d="M803.4,504.4c-1.9-0.5-5.1,1.1-6.6-0.8c-1.1-1.4-0.8-4.3-0.6-5.8c0.5-3.2,0.8-6.2,0.4-9.3c-0.9-9-0.4-19.5-8.2-25.8
			c-3.4-2.7-9.8-3.6-14.1-3.4c-3,0.1-5.6,0.8-8.3,2c-1.1,0.5-4.3,3.3-5.3,3.1c-1.4-0.4-1.2-3.2-3.1-3.9c-2.1-0.8-5.5-0.3-7.7-0.4
			c-5.2-0.2-10.4,0-15.5,0l-0.2,1c0.1,0.4,0,0.7,0,1.1c4.7,0,9.3-0.2,13.9,0c2.2,0.1,5.6-0.4,7.7,0.4c2,0.7,1.7,3.5,3.1,3.9
			c1,0.2,4.2-2.6,5.3-3.1c2.6-1.2,5.2-1.9,8.3-2c4.3-0.2,10.7,0.7,14.1,3.4c7.8,6.2,7.3,16.8,8.1,25.8c0.3,3.2,0.1,6.2-0.4,9.3
			c-0.3,1.6-0.5,4.4,0.6,5.8c1.4,1.9,4.6,0.3,6.6,0.8c2.2,0.6,2.1,3,1.9,5.2c-0.1,1.1-0.1,3.4-0.5,5c0.5-0.1,0.9-0.4,1.2-0.7
			c0.9-1.1,0.9-5,1-6.4C805.6,507.4,805.6,505,803.4,504.4z"/>
		<path d="M188.8,436.3c1.8,0,6.6-0.9,8.1,0c1.3,0.8,1.3,4.8,1.5,6.3c0.1,1,0.5,3.4,0.4,5c0.5-0.1,1-0.4,1.3-0.7
			c1-1.1,0.2-4.9,0.1-6.3c-0.2-1.5-0.2-5.6-1.5-6.3c-1.5-0.9-6.3,0-8.1,0c-12.3,0-24.7,0-37,0v0.8c0,0.4-0.1,0.9-0.1,1.3
			C165.3,436.3,177.1,436.3,188.8,436.3z"/>
		<path d="M401,446.4c0.9-2.9,6.3-10.9,3.7-12.4c-2.6-1.5-16.9,0.4-20,0.4c-10.6,0-22.6,0-33.2,0c0,0-0.2,0.7,0.1,2.1
			c10.1,0,21.3,0,31.3,0c3.1,0,17.4-1.9,20-0.4s-2.7,9.4-3.7,12.4c-0.1,0.2-0.1,0.4-0.2,0.6C399.8,448.7,400.5,447.9,401,446.4z"/>
		<path d="M652.3,470.5c-3.1-6.5-9.9-11-17.1-12.2c-3.3-0.6-9,0.3-12,1.7c-3,1.3-6.5,5.9-9.8,5.9c-1.1-6.3-4.8-5.7-10.6-5.7
			c-5,0-11.7,0.7-16.4-0.8c0,0-1.2-0.2-1.2,1.2c0,0.4,0,0.7,0,1.1c4.7,1.2,11,0.6,15.8,0.6c5.8,0,9.5-0.6,10.6,5.7
			c3.3,0,6.8-4.6,9.8-5.9s8.6-2.2,12-1.7c7.2,1.2,14,5.7,17.1,12.2c2.5,5.2,5,10.6,5.4,16.4c0.5,7.2-2.1,14.8-6.6,20.6
			c5.6-6,9-14.6,8.4-22.7C657.3,481.1,654.8,475.7,652.3,470.5z"/>
		<path d="M719.9,500.2c-2.4,0-6.5-0.5-8.6,0.7c-1.4,0.8-2.4,3.1-4.2,4c-4.5,2.4-10.7,3.3-15.8,1.7c-2.6-0.8-4.8-2.8-6.1-5.2
			c-0.6-1.2-1.4-3-1.9-4.7c1.7-0.2,3-0.4,5.2-0.4c3.3,0,6.6,0.1,9.7,0.4c5.3,0.5,11,0,16.2-0.2c1.7-0.1,5.7,0.5,7-0.5
			c1.6-1.2,1-3.8,0.6-5.3c-0.9-4.5-2.2-9.1-3.7-13.4c-3-8.7-14.2-13-22.6-13.4c-9.6-0.4-23.2,3.9-27.8,13.1
			c-2.1,4.2-2.9,10-3.4,14.6c-0.7,7,0.9,14.9,5.8,19.8c2.2,2.3,4.5,4.9,7.2,6.7c2.9,2,5.6,3.1,9,3.7c4.8,0.9,9.8,1.5,14.9,0.3
			c6.2-1.4,11-2.9,15.2-8.1c1.6-2,2.6-4.4,3.4-6.7c1.1-3.4-0.6-2.8-3.7-2.8c-2.5,0-6.5-0.5-8.6,0.7c-1.4,0.8-2.4,3.1-4.2,4
			c-4.5,2.4-10.7,3.3-15.8,1.6c-2.6-0.8-4.8-2.8-6.1-5.2c-1.1-2.2-2.9-6.5-2.5-8.9l1.8,0.2h0.1c0.4,2.3,1.6,5.1,2.4,6.7
			c1.3,2.4,3.5,4.4,6.1,5.2c5.1,1.7,11.3,0.7,15.8-1.6c1.7-0.9,2.8-3.3,4.2-4c2.1-1.2,6.2-0.7,8.6-0.7c3.1,0,4.8-0.6,3.7,2.8
			c-0.7,2.1-1.6,4.3-2.9,6.1c0.5-0.5,0.9-0.9,1.3-1.5c1.6-2,2.6-4.4,3.4-6.7C724.6,499.6,722.9,500.2,719.9,500.2z M702.6,482.1
			c-2.4,0-4.9-0.1-7.3-0.2c-1.9-0.1-11.5-0.6-13.1-0.4h-0.5c0.2-1,0.9-2.2,1.6-3.4C689.1,473.7,699,475.7,702.6,482.1z M678.7,485.7
			h-0.5c0.4-1.9,2.5-4.9,3.8-6.4c0.2-0.2,0.3-0.3,0.5-0.5c-1.1,1.5-2.2,3.4-2.5,4.8h0.5c1.6-0.1,11.2,0.3,13.1,0.4
			c2.8,0.1,5.5,0.2,8.3,0.2c0.6,0,1.2,0,1.7,0c0.6,2-0.8,2.1-3.4,2.1c-2.8,0-5.6-0.1-8.3-0.2C689.9,486,680.3,485.5,678.7,485.7z"/>
		<path d="M467.3,439c0,0-0.8-0.1-0.8,0.8c0,0.6,0,1.3,0,1.9c0,4-1.2,8.9,2.4,10.7c4.2,2.1,11.5-1.5,11.3,5.1
			c-0.3,8.5,0.4,16.4,0.4,24.9c0,4.3,0,8.6,0,12.9c0,2.8,0.6,7,0,10.2c-2.6,0.7-5.9,0.1-7.1,2.1c-0.1,0.3-0.2,0.6-0.3,0.9
			c1.9-0.7,4.8-0.3,6.8-1.5c-0.1,0.2-0.2,0.5-0.3,0.7c-2.3,3.8-8.2,1.2-9.8,4.1c-1.3,2.4,1.4,8.8,1.4,11.8
			c6.9-2.2,16.7-0.4,24.4-1.1c2.2-0.2,9.9,0.9,10.9-0.7c0.6-0.9,0-6.3,0.1-7.4c0.2-1.7,0.7-3.8,0.6-5.9c-1.8-0.1-6.4,0.6-8,0
			c-2.6-1-1.9-0.9-2-4c-0.3-4.5,0-9,0-13.5c0-9.5-0.8-17.8-0.8-27.2c0-6.3,4.2-21.6-1.5-25.9c-5-3.8-14.7-1.3-21,0.3L467.3,439z"/>
		<path d="M399.6,480c0.1,0.6,1.3,1.1,1.3,1.1c4.3,0.3,6.1-0.4,10.1-1.5c6.4-1.8,5.2-3.6,9.2-5.1c6.9-2.6,15.9,0.9,18,7.8
			c-6.6-1.2-16.6-2.2-21,0.3c-3,1.7-5.8,4.1-8,7c1.8-1.9,4-3.6,6.2-4.9c4.9-2.9,16.9-1.2,23.2,0.1c0,0.8,0,1.6-0.1,2.5
			c-5.6-1.4-19.5-3.6-24.8-0.5c-1.8,1-3.5,2.3-5.1,3.8c0.2-0.3,0.4-0.7,0.7-1c-0.6,0.6-1.2,1.3-1.7,2c-3,3.1-5.1,6.9-5.5,10.9
			c-1.7,16,25,31.1,35.5,16.1c0.1-0.1,0.3-0.3,0.4-0.5c0.3,1.2,0.3,2.8,0.4,4.1c5.7,0,19.7,5.2,24.6,0.3c1.9-1.9,2.1-8.4,1.3-10.9
			c-0.9-3.1-0.6-2.3-4-2.6c-2-0.2-4-0.5-6-0.5c1.7-7.9,2.4-19.6,1-28c-1.3-7.6-6.4-12.6-13.3-15.4c-9.2-3.7-16.8-4.6-26.4-1
			c-3.8,1.4-7.7,3.3-10.9,6c0.3-0.5,0.6-1,1-1.4c-0.5,0.5-1.1,1.2-1.8,2.1C402.2,472.6,398.7,477.5,399.6,480z M424.7,497.6
			c1.1-0.4,2.3-0.6,3.6-0.7c4.8-0.3,6.6,0.9,9.6,4.3c-0.6,0.6-1.1,1.3-1.7,2.1c-0.6,0.4-1.2,0.8-2,1c-4.7,1.2-8.9-0.1-9.5-4.8
			C424.6,498.9,424.6,498.2,424.7,497.6z M423.2,498.3c-0.4,0.9-0.5,2-0.3,3.3c0.6,4.6,4.8,6,9.5,4.8c1.1-0.3,2-0.8,2.7-1.5
			c-1.1,1.6-2.4,3.1-4.5,3.6c-4.7,1.2-8.9-0.1-9.5-4.8C420.8,501,421.7,499.3,423.2,498.3z"/>
		<path d="M742.1,456.5c0.4,0.2,9.3,1.5,9.3,1.5c1.1-4.4,2.6-7.7,8.2-6.8c2.4,0.4,4.7,2.3,7.1,3.1c2.1,0.7,4.3,1,6.4,1.4
			c5.7,1.1,11.4-0.9,14.6-5.8c1.8-2.7,5.2-10.3,1.1-12.1c-1.6-0.7-4.3-1.4-5.8-0.5c-0.7,0.4-1,1-1.3,1.6c-2.7,0.9-6.1-0.6-8.6-1.8
			c-5-2.3-9.2-4.1-14.8-4.1c-3.9,0-6.1,1.9-7.9,4.4c1.5-1.4,3.4-2.3,6.1-2.3c5.6,0,9.7,1.8,14.8,4.1c2.8,1.3,6.8,3.1,9.7,1.2
			c-0.2,0.4-0.4,0.8-0.7,1.2c-2.9,3.3-7.6,1.2-10.8-0.3c-5-2.3-9.2-4.1-14.8-4.1c-5.7,0-7.8,3.9-10.2,8.3
			C743.8,446.9,739.1,455.2,742.1,456.5z"/>
		<path d="M401.1,438.2c-2.6-1.5-16.9,0.4-20,0.4c-10.6,0-22.6,0-33.2,0c0,0-0.2,0.8,0.1,2.3c0.7,2.9,0.6,6.3,0.8,9.3
			c0.2,4.2-0.9,5.4,3.6,5.8c2.3,0.2,7.4-1.4,9.3-0.4c2.1,1.1,2.7,6.3,2.7,9c0,19.6,3.3,40.1-0.6,59c-0.3,1.3-0.6,2.4-1.1,3.4
			c-3.3,2-7.6,0.6-10.5-4.8c-1.1-2-1.5-6.2-0.8-9.3c0.6-0.2,1.2-0.6,1.7-1.7c0.1-0.1,0.1-0.2,0.1-0.4c0.6-0.2,1.1-0.6,1.7-1.7
			c0.1-0.1,0.1-0.3,0.1-0.4c-0.5,0.2-1,0.3-1.6,0.7c0-1.6-0.3-3.7-0.3-4.7c-6.5,0-19.2-1-25.9-0.8c-0.4,3.3-0.2,7-0.1,10.4
			c2.8,0.1,5.2-0.7,6.6,1.6c0.9,1.5,0.4,6.3,0.5,8.1c0.2,4.7,3,10.5,6.2,14.2c2.2,2.6,4.9,5.3,7.6,6.9c7.5,4.4,15.3,2.6,23.5-0.9
			c17.6-7.5,14.5-25.6,14.3-42.6c-0.1-11.3,0.3-22.4,0.4-33.9c0-3-0.9-11.4,1.4-13.1c0.3-0.2,0.5-0.4,0.8-0.5
			c-1,3.1-0.4,9.1-0.5,11.5c-0.1,11.5-0.5,22.6-0.4,33.9c0.1,12.8,1.9,26.3-4.8,35.3c8.8-9,6.7-23.6,6.5-37.4
			c-0.1-11.3,0.3-22.5,0.4-33.9c0-2.1-0.4-6.7,0.1-9.9c3.2-0.6,6.2,1.5,7.6-3C398.3,447.6,403.7,439.7,401.1,438.2z M348.6,526.5
			c-1.5-2.8-1.8-9.9,0.7-12.4c0.3-0.3,0.6-0.5,0.8-0.6c-1.4,3.1-1,8.5,0.3,10.9c3.3,6,8.2,7,11.6,4
			C358.7,533.7,352.5,533.6,348.6,526.5z"/>
		<path d="M231.5,481.2c-0.1,1,7.2-0.7,7.2-0.7c2.2-0.2,5.3-0.6,7.4-1.2c1.6-0.4,2.7-2.1,4.3-3.1c1.7-1.1,3.2-1.5,5.1-1.8
			c4.1-0.5,9.1-0.4,12,2.8c1.5,1.6,2.2,3.8,2.3,6.1c-1.6-0.7-3.1-1.6-4.7-2c-2.8-0.9-5.1-1.4-8.2-1c-5.7,0.8-12.8,4.5-16.3,9.3
			c3.8-3.8,9.6-6.6,14.5-7.3c3.1-0.4,5.3,0.1,8.2,1c2.1,0.7,4.3,2,6.4,2.7c-0.1,0.8-0.3,1.7-0.5,2.4c-2.6-0.4-5.2-2.3-7.7-3.1
			c-2.8-0.9-5.1-1.4-8.2-1c-5.8,0.8-13.1,4.6-16.5,9.6c-6.2,9.3-0.7,26.8,11.8,26.8c3.3,0,6.5,0.1,9.7-0.5c3.6-0.7,6.1-2.6,9.2-4.1
			c0.1,1-0.3,3,0.3,3.8c0.7,1,2.4,1.1,3.6,1.3c3,0.4,6.1,0.5,9.2,0.6c3.7,0.2,11.5,1.8,14.1-1.5c1.3-1.7,0.9-5.6,1.2-7.7
			c0.5-3.3,0-4.3-3.4-4.4c-3.2-0.1-4.9,0.9-4.9-2.8c0-2.8,0-5.7,0-8.5c0-11.2,1.9-25.8-9.6-31.9c-9.6-5.1-21.9-3.6-31.8-0.2
			c-3.1,1.1-6.1,2.9-8.6,5.2c0.2-0.3,0.4-0.7,0.7-1c-0.6,0.7-1.2,1.4-1.8,2.1C233.8,474.2,231.9,477.7,231.5,481.2z M268.7,504.4
			c-1.9,1.3-4.1,2.1-6.2,2.6c-3,0.7-7.6,1.8-9.9-0.9c-1.7-1.9-2.6-5-2-7.6c2.3-1.2,5-1.6,7.4-1.6c4.6,0,7.2,1.5,10.8,3.5l0.4,0.4
			C269.3,502.1,269.1,503.3,268.7,504.4z M259,511.2c-3,0.7-7.6,1.7-9.9-0.9c-2.4-2.7-3.3-8-0.3-10.5c0.2-0.2,0.4-0.3,0.6-0.4
			c-1.3,2.7-0.4,6.6,1.6,8.8c2.4,2.6,6.9,1.6,9.9,0.9c2.6-0.6,5.4-1.7,7.4-3.5C266.3,508.6,262.4,510.4,259,511.2z"/>
		<path d="M225.8,491.4c0.2-2.2,0.5-5.6-1.1-7.1c-1.8-1.8-4.9-1.2-7.3-1.2c-2,0-6.7-0.9-7.8,0.9c-0.6,1,0.3,2.6,0.4,3.6
			c0.1,1.5-0.3,2.8-0.4,4.2c-0.2,2.9-0.2,5.7-0.3,8.5c0,0.9-0.1,2.4-0.3,3.9c-2.2,0.3-5.1-0.1-6.7-0.2c-3.2-0.2-6.6,0-9.8-0.3
			c-2.9-0.3-4.7-0.9-5.4-4c-0.5-2.3-0.8-5-0.8-7.4c-0.1-5.8,0-11.6,0.8-17.2c0.3-2.4,0.3-5.3,0.8-7.8c0.5-3-0.1-6-0.2-9.1
			c0-1.8,0.2-4,0.5-6c0.5-0.1,1.1-0.2,1.5-0.2c1.9-0.2,5.3,0.6,6.7-0.9c1-1.1,0.2-4.9,0.1-6.3c-0.2-1.5-0.2-5.6-1.5-6.3
			c-1.5-0.9-6.3,0-8.1,0c-12.3,0-24.7,0-37,0v0.8c-0.3,3.7-1.3,9.4,0,13.3c0.9,2.9,2.7,1.8,4.9,1.3s4.3-0.8,6.6-0.7
			c0.3,8.1,0.5,15.8,0.9,23.6c0.3,7.5,1,15.8,0,23.2c-0.2,1.4,0,3.1-0.2,4.6c-1.2,0.2-2.6,0-4,0.1c-2.3,0.1-3.5,0.7-4,2.5
			c0.6-0.2,1.3-0.4,2.2-0.4c2-0.1,3.9,0.3,5.4-0.6c-0.1,0.3-0.3,0.6-0.4,0.8c-1.6,2.4-4.1,1.7-6.7,1.8c-2.7,0.1-3.9,0.9-4.2,3.7
			c-0.3,2.4-0.8,6.2,0.5,8.1c2.6,3.8,11.1,2,15.1,1.8c6.2-0.3,12.3-0.5,18.6-0.2c5.6,0.3,11.1,0.2,16.7,0.2c5.6,0,11.2,0,16.6-0.8
			c2.8-0.5,6.9-0.8,7.9-4.1c0.8-2.6-0.7-5.7-0.8-8.2C224.7,503.2,225.1,497.3,225.8,491.4z M198.8,508.2c-3.2-0.2-6.6,0-9.8-0.3
			c-2.9-0.3-4.7-0.9-5.4-4c-0.5-2.3-0.8-5-0.8-7.4c-0.1-5.8,0-11.6,0.8-17.2c0.3-2.4,0.3-5.3,0.8-7.8c0.5-3-0.1-6-0.2-9.1
			c0-2.3,0.4-5.4,0.7-7.6c0.1-1,0.9-1.7,1.8-2.1c-0.3,2.2-0.7,5.3-0.7,7.6c0,3.2,0.7,6.2,0.2,9.1c-0.4,2.5-0.4,5.3-0.8,7.8
			c-0.8,5.7-0.9,11.4-0.8,17.2c0,2.4,0.3,5.1,0.8,7.4c0.7,3.1,2.5,3.7,5.4,4c3.2,0.3,6.6,0.1,9.8,0.3c1.9,0.1,5.9,0.7,8-0.1
			c-0.2,0.7-0.6,1.3-1,1.7C205.9,509,201,508.3,198.8,508.2z"/>
		<path d="M799.9,508.6c-1.9-0.5-5.1,1.1-6.6-0.8c-1.1-1.4-0.8-4.3-0.6-5.8c0.5-3.2,0.8-6.2,0.4-9.3c-0.9-9-0.4-19.5-8.1-25.8
			c-3.4-2.7-9.8-3.6-14.1-3.4c-3,0.1-5.6,0.8-8.3,2c-1.1,0.5-4.3,3.3-5.3,3.1c-1.4-0.4-1.2-3.2-3.1-3.9c-2.1-0.8-5.5-0.3-7.7-0.4
			c-5.1-0.2-10.4,0-15.5,0l-0.2,1c0.2,1.2-0.4,2.5-0.4,3.8s0,2.5,0,3.8c0,1.2-0.3,2.8,0.2,3.9c0.7,1.6,1.2,1.2,2.8,1.2
			c1.8,0.1,5,0.2,5.8,2.1c0.7,1.6,0,5.3,0,7.1c0,5.7,0.7,10.9,0.3,16.4c0,0.5,0,1.1,0,1.7c-1.8,0-4.2-0.1-5.3,0.7
			c-0.5,0.4-0.7,1-0.9,1.7c1.6-0.5,4.2-0.1,5.6-0.4c0.2,0,0.4-0.1,0.5-0.1c0,0.3-0.1,0.5-0.1,0.7c-0.4,1.5-0.5,1.2-2.2,1.4
			c-1.7,0.3-5.1-0.3-6.5,0.8c-1.5,1.1-0.8,4.3-0.8,6.1c0,1.3,0,2.5,0.2,3.7c0.3,1.9,0,1.7,1.9,2c7.1,0.9,14.4,0,21.5,0.3
			c2.5,0.1,5,0,7.4,0c1.7-0.1,5.5,0.4,5.7-2.2c0.2-1.9-0.4-4.4-0.4-6.5c0-2.2,0.7-4.6-2.1-5.2c-1-0.2-2.2,0.2-3.3,0
			c-1.7-0.3-1.3-0.1-1.6-1.8c-0.9-4.8-1.4-10.3-1-15.6c0.2-2.4,0.1-5,0.4-7.4c0.2-1.5,1-2.5,2.1-3.3c-0.2,0.4-0.3,0.8-0.3,1.2
			c-0.3,2.4-0.2,5-0.4,7.4c-0.4,5.3,0,10.7,1,15.6c0.3,1.7-0.1,1.4,1.6,1.8c1.1,0.2,2.3-0.2,3.3,0c2.7,0.6,2.1,3,2.1,5.2
			c0,2,0.5,4.4,0.4,6.3c0.9-0.3,1.7-0.8,1.8-1.9c0.2-1.9-0.4-4.4-0.4-6.5c0-2.3,0.7-4.6-2.1-5.2c-1-0.2-2.2,0.2-3.3,0
			c-1.7-0.3-1.3-0.1-1.6-1.8c-0.9-4.8-1.4-10.3-1-15.6c0.2-2.4,0.1-4.9,0.4-7.4h0.1c4.1-1.8,8-0.3,10.6,3.2
			c2.5,3.5,1.1,9.4,1.5,13.8c0.5,5.3,0.4,10.8,0.4,16.1c0,1.9-0.8,5.9,0.5,7.4c1.3,1.6,4,0.6,5.6,0.4c4.8-0.5,9.3,0.6,13.9,0.6
			c1.7,0,4.7,0.6,5.8-0.8c0.9-1.1,0.9-5,1-6.4C802,511.6,802.1,509.2,799.9,508.6z"/>
		<path d="M868.5,508.4c-3.2-0.1-4.9,0.9-4.9-2.8c0-2.8,0-5.7,0-8.5c0-11.2,1.9-25.8-9.6-31.9c-9.6-5.1-21.9-3.6-31.8-0.2
			c-7.4,2.5-13.3,8.7-14.7,16.1l0.8-0.2c1.1-0.8,5.3-0.9,7-1.1c2.2-0.2,4.7,0,6.8-0.6c1.6-0.4,2.7-2.1,4.3-3.1
			c1.7-1.1,3.2-1.5,5.1-1.8c4.1-0.5,9.1-0.4,12,2.8c1.5,1.6,2.2,3.8,2.3,6.1c-1.6-0.7-3.1-1.6-4.7-2c-2.8-0.9-5.1-1.4-8.2-1
			c-5.7,0.8-12.8,4.4-16.3,9.3c3.8-3.8,9.6-6.6,14.5-7.3c3.1-0.4,5.3,0.1,8.2,1c2.1,0.7,4.3,2,6.4,2.7c-0.1,0.8-0.3,1.7-0.5,2.4
			c-2.6-0.4-5.2-2.3-7.7-3.1c-2.8-0.9-5.1-1.4-8.2-1c-5.8,0.8-13.1,4.6-16.5,9.6c-6.2,9.3-0.7,26.8,11.8,26.8c3.3,0,6.5,0.1,9.6-0.5
			c3.6-0.7,6.1-2.6,9.2-4.1c0.1,1-0.3,3,0.3,3.8c0.6,1,2.4,1.1,3.6,1.3c3,0.4,6.1,0.5,9.2,0.6c3.7,0.2,11.5,1.8,14.1-1.5
			c1.3-1.7,0.9-5.6,1.2-7.7C872.4,509.5,871.9,508.6,868.5,508.4z M834.9,511.2c-3,0.7-7.6,1.7-9.9-0.9c-2.3-2.6-2.1-5.4-2.3-8.7
			c0.6-0.6,1.2-1.1,1.8-1.6c0.1,3,0,5.7,2.2,8.2c2.4,2.6,6.9,1.6,9.9,0.9c2.6-0.6,5.3-1.5,7.2-3.2
			C842.2,508.9,838.4,510.4,834.9,511.2z M844.5,504.7c-1.8,1.1-3.9,1.8-6,2.3c-3,0.7-7.6,1.8-9.9-0.9c-2-2.2-2.1-4.7-2.2-7.3
			c2.2-1.2,4.7-1.9,7.7-1.8c4.6,0,6.7,2.1,10.3,4l0.5,0.5C844.9,502.7,844.8,503.7,844.5,504.7z"/>
		<path d="M569.3,509c-0.4-4.3,1.1-8.7,1.1-13.2c0-4.8-0.3-9.2-1-13.6c-1.4-8-3.5-14.7-11.1-18.1c-10.3-4.6-28.2-3.1-37.7,5.5
			c0.2-0.4,0.5-0.7,0.7-1.1c-0.6,0.6-1.2,1.3-1.7,2c-2.3,2.3-4,5.1-4.8,8.4c0,0-0.1,1.4,0.8,1.3c3.4-0.6,8.4-0.7,12.1-1.9
			c3-1,5.6-3.9,9.1-4.4c7.1-1.1,11.6,1.7,13.8,6.9c-5.5-1.2-10-0.9-16.2,1.9c-3.8,1.7-7.3,4.3-9.7,7.6c2.2-2.3,5-4.2,7.9-5.5
			c7.3-3.2,12.2-3.2,18.9-1.2c0.2,0.9,0.4,1.8,0.5,2.8c-8.1-2.7-13.2-3.1-21.2,0.5c-6.6,2.9-12.3,8.6-13.3,16.1
			c-2.4,17.1,24,28.2,34.3,15.1c-0.1,5.3,1.1,5.2,6.1,5.2c3.8,0,7.6,0.4,11.5,0.4c3.5,0,8.5,1.2,10.1-1.9c1.3-2.4,0.5-9.1,0.1-11.7
			C576.3,510,573,508.6,569.3,509z M538.2,498.3c4.4-2.2,11.6-1,15.2,1.7c0.5,0.4,0,1.5,0,1.5c-0.2,0.9-0.6,1.8-1.1,2.7
			c-5,4.4-12.2,6.3-14-1.5C537.8,501,537.9,499.6,538.2,498.3z M534.7,506.9c-0.9-3.7,0.2-6.2,2.2-7.8c-0.7,1.4-1,3.3-0.4,5.7
			c1.9,8.5,10.2,5.5,15.1,0.5C547.1,511.4,536.9,516.5,534.7,506.9z"/>
		<path d="M654.1,491.1c-0.4-5.8-2.9-11.2-5.4-16.4c-3.1-6.5-9.9-11-17.1-12.2c-3.3-0.6-9,0.3-12,1.7c-3,1.3-6.5,5.9-9.8,5.9
			c-1.1-6.3-4.8-5.7-10.6-5.7c-5,0-11.7,0.7-16.4-0.8c0,0-1.2-0.2-1.2,1.2c0,4.9,0.6,9.9,0.4,14.6c1.6,0.2,6.8-0.8,8,0.2
			c1.2,1.1,0.6,4.8,0.6,6.4c0,5.8,0,11.7,0,17.5c0,9,1.5,17.5,2.3,26.2c0,0.6,0,1,0,1.5c-1.2,0.3-2.6,0.5-4.1,0.8
			c-1.6,0.4-2.8,1.5-3.5,2.9c0.5-0.3,1.1-0.6,1.7-0.8c2.3-0.6,4.2-0.7,5.6-1.4c-0.8,2.8-3.8,2.5-7.4,3.4c-3.7,1-5.2,5.1-3.3,9.4
			c2.4,5.3,20.9,2.6,26.4,2.3c2.8-0.2,10.4,0.3,11.8-2c1.3-2.2,0-10.1-0.1-12.7c-4.4-0.2-9.5,0.9-10.8-3.3c-1.1-3.2-0.3-9.7,0.2-13
			c0.5,0,1,0.1,1.5,0.4c-0.4,3.4-0.7,8,0.1,10.5c1.4,4.2,6.4,3.1,10.9,3.3c0.1,2.3,1.1,8.7,0.5,11.7c0.7-0.3,1.1-0.6,1.4-1.1
			c1.3-2.2,0-10.1-0.1-12.7c-4.4-0.2-9.5,0.9-10.9-3.3c-0.6-1.8-0.6-4.7-0.4-7.5c0.5,0.4,0.9,0.7,1.4,1c4,2.5,10.5,4.5,15.2,3.9
			c4.7-0.5,9-3.2,12.7-6c2.2-1.6,4.1-3.5,5.8-5.7c0.6-0.6,1.2-1.3,1.7-2c-0.3,0.3-0.6,0.5-0.8,0.8
			C652.4,504.8,654.6,497.7,654.1,491.1z M614.1,481c1.6-1,3.5-1.9,4.5-2.2c2.5-0.7,6-0.5,8.1,0.9c4.8,3.3,6.5,9.1,6.5,14.8
			c0,2.3-0.2,4.2-0.7,5.8c-0.7,0.4-1.5,0.7-2.4,1c-2.5,0.8-15.1,3.3-15.2-1v-0.6c0-4-0.4-7.9-0.4-11.9
			C614.5,486.2,613.8,483.2,614.1,481z M610.9,483.8c0.3-0.5,0.9-1.2,1.7-1.7c-0.7,2.1,0.2,5.9,0.2,8c0,4,0.4,7.9,0.4,11.9v0.6
			c0.1,4.2,12.7,1.7,15.2,1c1.6-0.5,2.7-1.1,3.7-1.9c-1,1.8-2.6,3.1-5.4,4c-2.5,0.8-15.1,3.3-15.2-1v-0.6c0-4-0.4-7.9-0.4-11.9
			C610.9,490,609.9,485.8,610.9,483.8z"/>
	</g>
	<g>
		<path class="st1" d="M258.4,417.3c0-140.1,113.6-253.6,253.6-253.6c140.1,0,253.6,113.6,253.6,253.6"/>
		<polyline class="st2" points="453.9,418.8 270.7,409.2 454.1,414 272.2,390 454.6,409.2 275.2,371.1 455.6,404.5 279.7,352.4 
			456.9,399.9 285.6,334.2 458.5,395.4 293,316.4 460.5,391 301.7,299.3 462.9,386.9 311.7,283 465.5,382.9 323,267.4 468.5,379.1 
			335.5,252.8 471.8,375.6 349,239.3 475.3,372.3 363.6,226.8 479.1,369.3 379.2,215.5 483.1,366.7 395.5,205.5 487.2,364.3 
			412.6,196.8 491.6,362.3 430.4,189.4 496.1,360.7 448.6,183.5 500.7,359.4 467.3,179 505.4,358.4 486.3,176 510.2,357.9 
			505.4,174.5 515,357.7 524.6,174.5 519.8,357.9 543.7,176 524.6,358.4 562.7,179 529.3,359.4 581.4,183.5 533.9,360.7 
			599.6,189.4 538.4,362.3 617.3,196.8 542.7,364.3 634.4,205.5 546.9,366.7 650.8,215.5 550.9,369.3 666.3,226.8 554.7,372.3 
			680.9,239.3 558.2,375.6 694.5,252.8 561.5,379.1 707,267.4 564.4,382.9 718.3,283 567.1,386.9 728.3,299.3 569.4,391 737,316.4 
			571.5,395.4 744.4,334.2 573.1,399.9 750.3,352.4 574.4,404.5 754.8,371.1 575.4,409.2 757.8,390 575.9,414 759.3,409.2 
			576.1,418.8 		"/>
		<g>
			<path d="M544.9,168.9c16.7,3.3,33.4,6.7,49.1,13c15.8,6.2,30.7,14.3,45.1,23.4c7.2,4.5,14.4,9.2,21.3,14
				c6.9,4.9,13.5,10.1,19.8,15.7c12.6,11.2,23.9,23.8,33.3,37.6c4.7,6.9,9.1,14.1,13,21.4c3.9,7.4,7.3,15,10.5,22.8
				s6.1,15.7,8.8,23.8c2.7,8,5.1,16.2,7.4,24.3c4.1,14.9,7.6,29.9,10.5,45.2c-8.9-0.1-17.7-0.1-26.6,0c-8,0.1-15.9,0.3-24,0.6
				c-2,0.1-3.9,0.2-6.1,0.3c-2.1,0.2-4.2,0.4-6.2,0.8c-4.1,0.6-8,1.5-11.9,2.2s-7.6,1.3-11.4,1.6c-3.7,0.2-7.7,0.2-11.5,0.1
				c-7.8-0.2-15.7-1-23.6-1.8c-3.9-0.4-8-0.8-12-1s-8.1-0.3-12.1-0.2c-8,0.1-16,0.5-24,0.9c-7.9,0.4-15.8,0.8-23.7,0.7
				c-7.9-0.2-16-0.2-23.9,0c-16,0.4-31.8,1.4-47.7,2c-0.2,0-0.4,0.2-0.4,0.5s0.2,0.5,0.5,0.5c15.9,0.2,31.9-0.2,47.7,0.1
				c8,0.1,15.8,0.5,23.8,1c8,0.4,16,0.4,24,0.2c8-0.1,15.9-0.3,23.8-0.1c3.9,0.1,7.8,0.3,11.7,0.6c3.9,0.3,7.7,0.9,11.7,1.4
				c7.9,1.1,15.9,2.1,24,2.6c4.1,0.3,8,0.5,12.3,0.4c4.2-0.1,8.3-0.7,12.3-1.2c4-0.6,7.9-1.2,11.7-1.6c1.9-0.2,3.8-0.3,5.6-0.4
				l5.8-0.1l23.8-0.3c15.9-0.2,31.8-0.5,47.7-0.8s31.8-0.8,47.7-1.2c15.9-0.4,41.1-0.8,57.1-2c0.2,0,0.4-0.2,0.4-0.4
				c0-0.3-0.2-0.5-0.4-0.5c-15.9-1.1-41-2.2-57-3c-8-0.4-16-0.7-23.9-0.9c-8-0.2-15.9-0.4-23.9-0.5c-6.5-0.1-13-0.2-19.6-0.3
				c-0.7-15.7-2.8-31.3-5.8-46.7c-3.3-16.9-7.9-33.7-13.9-50c-3.1-8.1-6.5-16.2-10.6-23.9c-4.1-7.8-8.9-15.2-14-22.2
				c-10.4-14-22.6-26.7-35.9-37.9c-6.7-5.6-13.6-10.8-20.9-15.6c-7.3-4.7-14.5-9.2-21.9-13.6c-14.8-8.8-30.3-16.7-46.5-22.6
				c-16.3-5.9-33.2-9.7-50.4-11.5C545.3,166.1,522.4,164.5,544.9,168.9z"/>
			<path d="M441,174.1c-13.1,3.6-26.1,7.9-38.7,13.1c-6.3,2.6-12.6,5.5-18.7,8.5c-6.1,3.1-12.1,6.5-18,10.2
				c-23.2,14.8-43.7,34.1-60,56.3s-28.5,47.3-36.4,73.4c-7.3,24.6-11,50.2-10.8,75.8c-0.8-0.1-1.6-0.2-2.4-0.3
				c-10.5-1.2-21.3-2-32.2-1.6c-5.4,0.3-10.9,0.8-16.2,1.6c-5.3,0.8-32.7,1.7-37.9,2.8c-10.4,2.1-23.8,4.3-34.3,5.9
				c-0.2,0-0.4,0.2-0.4,0.4c0,0.3,0.2,0.5,0.4,0.5c10.7,1.1,24.7,0.5,35.2-0.4c10.6-0.8,43-1.8,53.3-1.6c10.3,0.1,20.7,0.8,31.2,1.5
				c10.5,0.6,21.2,1.3,31.9,1.5c10.7,0.2,21.7-0.5,32.2-2.3c10.4-1.6,20.7-2.8,31.1-2.2c5.2,0.3,10.2,1,15.4,2.1
				c5.4,1.1,10.8,1.2,16.2,1c10.7-0.5,21.1-2.6,31.7-2.8c0.2,0,0.4-0.2,0.4-0.4c0-0.3-0.2-0.5-0.4-0.5c-10.6-0.5-21.3,1-31.7,0.9
				c-5.2-0.1-10.4-0.5-15.3-1.8c-5.1-1.4-10.5-2.5-15.9-3c-10.8-1.1-21.6-0.3-32.2,0.9c-10.4,1.4-20.7,1.5-31.1,0.9
				c-9.2-0.5-18.5-1.6-27.8-2.8c1.1-25.4,5.7-50.6,14-74.5c8.6-25.4,21.3-49.4,37.8-70.4c8.3-10.5,17.5-20,27.7-28.7
				c10.1-8.6,20.6-16.9,31.6-24.4c10.9-7.6,22.5-14.3,34.4-20.6s24.1-12,36.3-18.1c0.2-0.1,0.3-0.3,0.2-0.5
				C441.5,174.2,441.2,174.1,441,174.1z"/>
		</g>
	</g>
	<path class="st3" d="M685.4,291.9c-0.5,0.7-0.6,1.6-0.4,2.6c0,0.1,0,0.2-0.1,0.2l0,0c-0.1,0-0.2-0.1-0.2-0.1
		c-0.1-0.1-0.5-0.4-0.9-0.6c-0.5-0.3-1-0.6-1.1-0.9c-0.6-1-0.4-1.8-0.2-2.3c0.5-1,1.9-1.6,3.3-1.6c1,0,1.8,0.3,2.3,0.9
		c0.1,0,0.1,0.1,0,0.2c0,0.1-0.1,0.1-0.2,0.1C688,290.3,686.3,290.6,685.4,291.9z M684.2,295.9c0-0.1,0-0.2,0.1-0.3l0,0
		c5.4-2.3,5.4-6.3,5.4-6.4l0,0c0-0.1,0.1-0.2,0.2-0.2s0.2,0.1,0.2,0.2l0,0l0,0l0,0l0,0l0,0l0,0l0,0l0,0c0,0.1,0.4,0.6,0.7,0.9
		c0.4,0.4,0.8,0.8,0.9,1.1c0.3,0.8,0,1.6-0.3,2.3c-0.8,2.1-2.4,3.3-4.1,3.3l0,0c-0.3,0-1-0.3-1.6-0.5c-0.5-0.2-1.1-0.4-1.3-0.4l0,0
		C684.3,296,684.2,296,684.2,295.9z M687.3,296.8L687.3,296.8L687.3,296.8L687.3,296.8z M692.4,292.1L692.4,292.1
		c0.1,0,0.2,0,0.2-0.1c1.8-4.4-2.5-7.5-2.6-7.5c-1.4-1-2.8-1.5-4.3-1.5c-3,0-5.1,2.2-5.2,2.3c0,0-0.1,0.1,0,0.2
		c0,0.1,0.1,0.1,0.1,0.1c10.7,2,11.6,6.4,11.6,6.4S692.3,292.1,692.4,292.1z M674.6,292.4c-0.1,1.1,0.2,2.2,0.9,3.3
		c0,0,0.1,0.1,0.2,0.3c0.1,0.2,0.5,0.7,0.6,0.8c0,0.1,0,0.1,0.1,0.2h0.1c0.1,0,0.1,0,0.2-0.1c3.8-8.6,7.8-9.2,7.8-9.2
		c0.1,0,0.1,0,0.1-0.1s0-0.1,0-0.2c-0.6-0.9-1.6-1.3-2.8-1.3c-1.1,0-2.5,0.4-3.7,1C675.9,288.1,674.7,290.1,674.6,292.4z M688,301.6
		c1.9,0,3.6-0.7,3.6-0.7c4.9-2.2,3.5-7.9,3.5-7.9c0-0.1-0.1-0.1-0.2-0.1c-0.1,0-0.1,0-0.2,0.1c-1.5,2.9-5.5,5.5-8.6,5.5H686
		c-2.1,0-2.8-0.2-2.9-0.3c0-0.1-0.1-0.2-0.2-0.1c-0.1,0-0.1,0.1-0.1,0.2l0,0C683.7,300.5,685.5,301.6,688,301.6L688,301.6z
		 M702.1,284.9c-0.1-0.1-0.4-0.3-1.1-0.7c-0.4-0.2-0.9-0.5-1-0.6c0-0.1-0.1-0.1-0.2-0.1c-0.1,0-0.2,0.1-0.1,0.2
		c0.4,2.1,0.5,4.3,0.1,6.3c-0.8,4.3-2.9,8.1-6.3,11.1c-0.1,0.1-0.3,0.2-0.4,0.4c-0.8,0.7-2.2,2.1-3,2.1H690l0,0
		c-0.1,0-0.2,0-0.2,0.1s0,0.2,0.1,0.2c1.1,0.3,2.3,0.5,3.4,0.5l0,0c0.8,0,1.6-0.1,2.3-0.3c2.1-0.5,4.3-2.1,6.5-4.7
		c1.9-2.2,2.3-5.5,2.4-8.3C704.7,288.7,703.8,286.5,702.1,284.9z M700.8,303.1c-0.1,0-0.1,0-0.2,0c-0.1,0-4.9,3.2-9.4,3.2
		c-0.5,0-0.9,0-1.3-0.1c-0.1,0-8.3-0.7-12.2-5.3c0-0.1-0.1-0.1-0.2-0.1c-0.1,0-0.1,0.1-0.1,0.2s0.1,2.3,1.6,4.7
		c1.4,2.2,4.3,4.9,10.4,5.4l0,0c0.1,0,10.6-0.1,11.5-7.9C700.9,303.2,700.9,303.1,700.8,303.1z M675.4,301.3c0-0.1-2.6-6.6-1.3-10.8
		c0-0.1,0-0.2-0.1-0.2s-0.1,0-0.2,0c-0.1,0-6.9,4.9-3.6,13.2c0,0.1,3.4,8.1,11.3,8.1l0,0c0.7,0,1.3-0.1,2-0.2c0.1,0,0.1-0.1,0.1-0.1
		c0-0.1,0-0.1,0-0.2C683.6,311.1,677.4,305.6,675.4,301.3z M681.6,303c0.8,0.3,1.5,0.5,2.4,0.5c0.1,0,0.1,0,0.2,0c0,0,0.1,0,0.3,0
		s0.6-0.1,0.7-0.1c0,0,0,0,0.1,0l0,0c0.1,0,0.2-0.1,0.2-0.2s0-0.1-0.1-0.1c-5.9-7-3.8-11.1-3.8-11.1c0-0.1,0-0.1,0-0.2
		s-0.1-0.1-0.2-0.1c-2.4,0.4-3.2,3.4-3.2,5.8C678.1,300,679.4,302,681.6,303z M669.5,295.4L669.5,295.4c0.2,0,0.2,0,0.3-0.1
		c0-0.1,3.6-7.2,7.2-9.2l0,0c0.1,0,6.3-4.4,10.3-4.4c0.3,0,0.5,0,0.7,0.1l0,0l0,0c0.1,0,0.2-0.1,0.2-0.2s-0.1-0.2-0.2-0.2
		c-0.2,0-0.5-0.2-0.8-0.4c-0.2-0.1-0.3-0.2-0.5-0.3c-1.2-0.6-2.5-1-3.8-1.1c-0.5-0.1-1-0.1-1.5-0.1c-3.3,0-6.5,1-8.7,2.8
		c-1.9,1.5-3.3,3.6-4.1,6.1c-0.4,1.3-0.6,2.4-0.5,3.5c0,0.3,0.3,1,0.7,2c0.2,0.5,0.5,1.2,0.5,1.3
		C669.3,295.3,669.4,295.4,669.5,295.4z M681.6,277c0,0,3.6,0.9,7.1,3.5c3.3,2.4,7.2,6.8,7.4,14.1c0,0.1,0.1,0.2,0.2,0.2
		c0.2,0,0.9-0.6,0.9-0.7c0.6-0.6,1.1-1.4,1.5-2.3c1.4-2.9,0.7-7.1-0.6-10c-1.5-3.3-7.1-7.4-11.8-7.4c-2,0-3.7,0.8-4.8,2.2
		c0,0,0,0.1,0,0.2C681.5,276.9,681.6,276.9,681.6,277z"/>
	<path class="st0" d="M707.7,335.1c-0.4,0.6-0.5,1.3-0.3,2.1c0,0.1,0,0.2-0.1,0.2l0,0c-0.1,0-0.1-0.1-0.1-0.1
		c-0.1-0.1-0.4-0.3-0.7-0.5c-0.4-0.3-0.8-0.5-0.9-0.7c-0.5-0.8-0.4-1.5-0.1-1.8c0.4-0.8,1.5-1.3,2.7-1.3c0.8,0,1.4,0.2,1.9,0.7
		c0,0,0.1,0.1,0,0.2c0,0.1-0.1,0.1-0.1,0.1C709.8,333.9,708.4,334.1,707.7,335.1z M706.7,338.3c0-0.1,0-0.2,0.1-0.2l0,0
		c4.3-1.9,4.4-5.1,4.4-5.1l0,0c0-0.1,0.1-0.2,0.1-0.2c0.1,0,0.2,0.1,0.2,0.1l0,0l0,0l0,0l0,0l0,0l0,0l0,0l0,0c0,0.1,0.3,0.5,0.6,0.7
		c0.3,0.3,0.6,0.6,0.7,0.9c0.2,0.7,0,1.3-0.2,1.9c-0.7,1.7-1.9,2.7-3.3,2.7l0,0c-0.3,0-0.8-0.2-1.3-0.4c-0.4-0.2-0.9-0.4-1-0.4l0,0
		C706.8,338.4,706.7,338.4,706.7,338.3z M709.2,339L709.2,339L709.2,339L709.2,339z M713.3,335.3L713.3,335.3c0.1,0,0.1,0,0.2-0.1
		c1.4-3.5-2-6-2.1-6c-1.1-0.8-2.2-1.2-3.4-1.2c-2.4,0-4.1,1.8-4.2,1.9c0,0-0.1,0.1,0,0.1c0,0.1,0.1,0.1,0.1,0.1
		c8.5,1.6,9.3,5.1,9.3,5.1C713.2,335.2,713.2,335.3,713.3,335.3z M699,335.5c0,0.9,0.2,1.8,0.7,2.7c0,0,0.1,0.1,0.2,0.2
		c0.1,0.2,0.4,0.5,0.4,0.6s0,0.1,0.1,0.1c0,0,0,0,0.1,0s0.1,0,0.1-0.1c3-6.9,6.2-7.4,6.2-7.4c0.1,0,0.1,0,0.1-0.1c0,0,0-0.1,0-0.2
		c-0.5-0.7-1.3-1-2.3-1c-0.9,0-2,0.3-3,0.8C700.1,332.1,699.1,333.7,699,335.5z M709.8,342.9c1.5,0,2.9-0.5,2.9-0.6
		c3.9-1.8,2.8-6.3,2.8-6.3c0-0.1-0.1-0.1-0.1-0.1c-0.1,0-0.1,0-0.1,0.1c-1.2,2.3-4.4,4.4-6.9,4.4h-0.1c-1.7,0-2.2-0.2-2.3-0.3
		c0-0.1-0.1-0.1-0.2-0.1c-0.1,0-0.1,0.1-0.1,0.2l0,0C706.4,342,707.8,342.9,709.8,342.9L709.8,342.9z M721.1,329.5
		c-0.1-0.1-0.3-0.2-0.8-0.6c-0.3-0.2-0.7-0.4-0.8-0.5l-0.1-0.1c-0.1,0-0.1,0.1-0.1,0.2c0.4,1.7,0.4,3.5,0.1,5.1
		c-0.6,3.5-2.3,6.4-5,8.9c-0.1,0.1-0.2,0.2-0.3,0.3c-0.6,0.6-1.8,1.7-2.4,1.7h-0.1l0,0c-0.1,0-0.2,0-0.2,0.1s0,0.2,0.1,0.2
		c0.8,0.3,1.8,0.4,2.8,0.4l0,0c0.7,0,1.3-0.1,1.9-0.2c1.7-0.4,3.4-1.7,5.2-3.7c1.5-1.8,1.8-4.4,1.9-6.6
		C723.1,332.5,722.5,330.8,721.1,329.5z M720,344.1c-0.1,0-0.1,0-0.2,0c0,0-4,2.6-7.5,2.6c-0.4,0-0.7,0-1.1-0.1
		c-0.1,0-6.6-0.6-9.8-4.3c0,0-0.1-0.1-0.2,0c-0.1,0-0.1,0.1-0.1,0.1c0,0.1,0.1,1.9,1.3,3.8c1.1,1.8,3.5,3.9,8.3,4.3l0,0
		c0.1,0,8.5-0.1,9.2-6.3C720.1,344.1,720.1,344.1,720,344.1z M699.7,342.7c0-0.1-2.1-5.3-1-8.6c0-0.1,0-0.1-0.1-0.2c0,0-0.1,0-0.2,0
		c-0.1,0-5.5,3.9-2.9,10.6c0,0.1,2.7,6.5,9,6.5l0,0c0.5,0,1.1,0,1.6-0.1c0.1,0,0.1-0.1,0.1-0.1c0-0.1,0-0.1,0-0.2
		C706.3,350.5,701.3,346.1,699.7,342.7z M704.6,344c0.6,0.3,1.2,0.4,1.9,0.4h0.1c0,0,0.1,0,0.2,0c0.2,0,0.4-0.1,0.6-0.1
		c0,0,0,0,0.1,0l0,0c0.1,0,0.2-0.1,0.2-0.2c0,0,0-0.1-0.1-0.1c-4.7-5.6-3.1-8.9-3-8.9c0-0.1,0-0.1,0-0.2s-0.1-0.1-0.1-0.1
		c-1.9,0.4-2.6,2.7-2.6,4.6C701.8,341.6,702.9,343.2,704.6,344z M694.9,337.9C694.9,338,695,338,694.9,337.9c0.1,0,0.2,0,0.2-0.1
		s2.8-5.8,5.8-7.3l0,0c0.1,0,5-3.5,8.2-3.5c0.2,0,0.4,0,0.6,0l0,0l0,0c0.1,0,0.1-0.1,0.1-0.2s-0.1-0.1-0.1-0.2
		c-0.2,0-0.4-0.2-0.6-0.3c-0.1-0.1-0.3-0.2-0.4-0.2c-1-0.5-2-0.8-3.1-0.9c-0.4,0-0.8-0.1-1.2-0.1c-2.6,0-5.2,0.8-7,2.2
		c-1.5,1.2-2.7,2.9-3.3,4.9c-0.3,1-0.4,2-0.4,2.8c0,0.2,0.2,0.8,0.6,1.6c0.2,0.4,0.4,0.9,0.4,1.1
		C694.8,337.8,694.9,337.9,694.9,337.9z M704.7,323.2c0,0,2.9,0.7,5.7,2.8c2.6,1.9,5.7,5.4,5.9,11.3c0,0.1,0.1,0.2,0.2,0.2
		c0.1,0,0.7-0.5,0.7-0.5c0.5-0.5,0.9-1.1,1.2-1.8c1.1-2.3,0.5-5.7-0.5-8c-1.2-2.7-5.7-5.9-9.4-5.9c-1.6,0-2.9,0.6-3.8,1.8
		L704.7,323.2C704.6,323.1,704.6,323.1,704.7,323.2z"/>
	<g>
		<path class="st1" d="M579.1,308.5c0.2-1.8,0.5-3.8,1-5.8c5.2-14,9.1-28.4,11-43.2c0.1-0.7,0.2-1.4,0.2-2c14.7-1,13.3-5.1,13.3-5.1
			c0.6-15.2-1.2-28.1-4-38.9c3.4-1.3,6.8-3.9,9.1-9.1c0,0,0.4-1.1-0.2-2.9c0,0,5.3-5.6,3.1-17c0,0-3.3-5.6-7.7-6.1
			c0,0-4.2-8.9-14.4-9.6c0,0-9.4-0.4-9.9,5.3c-1.1-1.1-2.2-2.2-3.3-3.3c-0.9-0.9-1.5-1.3-1.5-1.3l0,0c-6.9-5.9-15.3-9.9-24.3-10.2
			c-0.9,0-1.8,0-2.7,0c-6.8,0.4-14.3,1.4-16.1-7.1c-3.5-16.7-3.6-30.4,6.2-44.9c7.8-11.5,23.5-27.4,35.7-11.1
			c0,0,9.6,17.6-15.8,17.9c-7.8,0.1-9.3,7.1-1.7,12.3c0,0,38.4,6.5,33.9-22.1c0,0-3-44.7-44.2-24.4c0,0-31,19.1-30.4,45.1
			c0.3,11.8-0.1,24.3-5,35.3c-2.6,5.7-9,7.5-13.8,11.5c-7.3,6.1-18,14.6-20.3,24.4c1,0.6,2.4,1.2,4,1.8c-2,5.1-3.4,10.3-3.8,15
			c-2,24.5,15.9,47.6,18.2,72c2.8,28.9-4.7,58.9-12.8,86.8c0,0-9.6,29.6-13,35.8c0,0-13.2,23.2-2.5,36.4c0,0,4.5,7.3,9.2-7.1
			c4.7-14.7,24-30.7,35.4-38.6c7.7-5.3,15-11.5,21.7-18.2c0.4,0,0.8,0.1,1.1,0.1l-2.7,3.6c0,0,1.2-1.4,2.9-3.6
			c0.7,0.1,1.4,0.1,1.9,0.2c0,0,26.1,6.2,31.9,6.2c2.8,0,18.8,2.1,20.5-1.8c1.6-3.8-3-20.9-4-24.6c-2.5-9.5-2.9-19.1-4.8-29
			c-1.4-7.6-2.3-13.6-1.8-20.4L579.1,308.5z"/>
		<g>
			<path class="st4" d="M567,375.3c-7-3.2-13.2-6-20.7-7.9c-0.2-0.1-0.5-0.1-0.7-0.2c-2.5,4.4-5.2,8.7-8.1,12.9c0.2,0,0.3,0,0.5,0
				c0,0,25.1,6.2,30.9,6.2c2.2,0,13.1,1.4,18.1-0.1C589.3,385.7,573.9,378.5,567,375.3z"/>
			<path class="st4" d="M612.5,184.3c0,0-3.3-5.6-7.7-6.1c0,0-4.2-8.9-14.4-9.6c0,0-9.4-0.4-9.9,5.3c-1.5-1.6-3.1-3.2-4.8-4.6l0,0
				l0,0c-6.9-5.9-15.3-9.9-24.3-10.2c-0.9,0-1.8,0-2.7,0c-6.8,0.4-14.3,1.4-16.1-7.1c-3.5-16.7-3.6-30.4,6.2-44.9
				c7.8-11.5,23.5-27.4,35.7-11.1c0,0,9.6,17.6-15.8,17.9c-7.8,0.1-9.3,7.1-1.7,12.3c0,0,38.4,6.5,33.9-22.1c0,0-3-44.7-44.2-24.4
				c0,0-31,19.1-30.4,45.1c0.3,11.8-0.1,24.3-5,35.3c-2.6,5.7-9,7.5-13.8,11.5c-7.3,6.1-18,14.6-20.3,24.4c1,0.6,2.4,1.2,4,1.8
				c-2,5.1-3.4,10.3-3.8,15c-2,24.5,15.9,47.6,18.2,72c2.8,28.9-4.7,58.9-12.8,86.8c0,0-9.6,29.6-13,35.8c0,0-13.2,23.2-2.5,36.4
				c0,0,4.5,7.3,9.2-7.1c4.7-14.7,24-30.7,35.4-38.6c6.8-4.7,13.2-10,19.2-15.8c4.6-4.8,9.1-9.9,13.2-15.2
				c-7.2-1.9-14.4-3.5-21.7-4.9c-7.6-1.4-15.3-2.8-23.1-3.2c7.8-0.1,15.6,0.9,23.3,1.9c7.7,1.1,15.4,2.4,23.1,4
				c7.7,1.5,15.3,4,22.7,6.7c13.6,4.9,21.1,11.4,21.1,9.7c-0.3-6.3-3.5-18.4-4.3-21.3c-2.5-9.5-2.9-19.1-4.8-29
				c-1.4-7.2-2.2-12.9-1.8-19.3c-1.2-0.9-2.5-1.8-3.8-2.6c-2.1-1.3-4.3-2.5-6.6-3.6c-4.6-2.1-9.5-3.7-14.5-4.9
				c-10-2.3-20.6-2.5-30.9-1.4c10.2-2.1,20.9-2.8,31.4-1.4c5.3,0.7,10.5,1.9,15.6,3.7c2.5,0.9,5,2,7.5,3.2c0.7,0.3,1.3,0.7,2,1.1
				c0.2-1,0.3-2,0.5-3.1c5.2-14,9.1-28.4,11-43.2c0.1-0.7,0.2-1.4,0.2-2c14.7-1,13.3-5.1,13.3-5.1c0.6-15.2-1.2-28.1-4-38.9
				c3.4-1.3,6.8-3.9,9.1-9.1c0,0,0.4-1.1-0.2-2.9C609.4,201.4,614.7,195.7,612.5,184.3z M583.7,372.8c-0.1,0.5-0.3,1.2-0.8,1.6l0,0
				c-0.1,0.1-0.3,0.1-0.3,0l0,0c-1.2-1.7-2.2-2.9-2.7-4.4l-0.2-1.2c0-0.2-0.1-0.4-0.2-0.5c0-0.1-0.3-0.4-0.4-0.4
				c-0.6-0.4-1.6-0.2-2.3,0.2c-0.7,0.5-1.4,1-2.2,1.4s-1.5,0.9-2.8,1.1c-2.3,0.4-5-0.7-5.8-2.8l0,0l0,0c-2.4-0.8-4.2-2.7-5.7-4.4
				c-0.8-0.8-1.5-1.7-2.2-2.4c-0.4-0.4-0.7-0.7-1.1-1c-0.4-0.3-0.8-0.6-1.2-0.9c-1.7-1.1-3.7-2.4-5.6-1.3c-1,0.5-1.9,1.2-2.9,1.9
				c-1.1,0.7-2.2,1.1-3.3,1.6c-1.2,0.4-2.5,0.8-3.9,0.7c-0.7,0-1.4-0.1-2.1-0.4c-0.4-0.1-1.4-0.6-1.9-0.9c-2.4-1.7-3.6-4.1-4.8-5.6
				c-0.3-0.4-0.6-0.8-0.9-1.1l-0.5-0.5l-0.5-0.5c-0.7-0.6-1.5-1-2.4-1.3c-1.7-0.6-3.9-0.1-6.1,0.8c-0.1,0-0.2,0-0.3-0.1
				c0-0.1,0-0.1,0-0.2c1.4-2,3.8-3.6,6.7-3.5c1.4,0,2.8,0.5,4,1.2c0.3,0.2,0.6,0.4,0.9,0.6l0.8,0.6c0.6,0.5,1,1,1.4,1.5
				c1.6,2.1,2.4,4.1,3.7,5.2c0.4,0.3,0.5,0.4,1.1,0.7c0.3,0.2,0.8,0.3,1.2,0.5c0.9,0.2,1.9,0.3,3,0.3c1.1-0.1,2.2-0.3,3.2-0.7
				c1-0.5,1.9-1.2,3-1.8c1-0.7,2.4-1.2,3.8-1.1c1.3,0,2.6,0.2,3.9,0.7c0.6,0.3,1.2,0.6,1.8,1s1.1,0.9,1.5,1.4c0.8,1,1.5,1.9,2.1,2.9
				c1.2,2,2.2,3.9,3.6,5.8c2.2,0,3.4-0.3,4.8-0.8c0.5-0.2,1.5-0.4,2.5-0.6c0.9-0.2,2-0.3,3.1-0.1c1.1,0.2,2,0.4,3.1,0.7
				c0.3,0.1,0.4,0.1,0.8,0.2c0.3,0.1,0.6,0.3,0.9,0.4c0.5,0.3,1,0.6,1.4,1c0.8,0.8,1,1.8,1.2,2.9
				C583.8,371.7,583.9,372.3,583.7,372.8z M575.6,335.7c-0.1,0.4-1.3,0.3-2.5-0.1s-2.1-1.1-2-1.5s1.3-0.3,2.5,0.1
				C574.9,334.7,575.8,335.4,575.6,335.7z M571.6,340.3c-0.4,0.2-1.1-0.6-1.7-1.8c-0.6-1.2-0.7-2.3-0.3-2.5s1.1,0.6,1.7,1.8
				C571.8,339,571.9,340.1,571.6,340.3z M572.9,330c1.2-0.6,2.3-0.7,2.5-0.3c0.2,0.4-0.6,1.1-1.8,1.7s-2.3,0.7-2.5,0.3
				S571.7,330.6,572.9,330z M569.4,327.5c0.5-1.2,1.1-2.1,1.5-2s0.3,1.3-0.1,2.5c-0.5,1.2-1.1,2.1-1.5,2S568.9,328.8,569.4,327.5z
				 M568.8,331.2c1.1,0.4,1.6,1.6,1.2,2.6c-0.4,1-1.6,1.6-2.6,1.2c-1.1-0.4-1.6-1.6-1.2-2.6C566.6,331.3,567.8,330.8,568.8,331.2z
				 M567,338.6c-0.4,1.2-1.1,2.1-1.5,2s-0.4-1.2,0.1-2.5c0.4-1.2,1.1-2.1,1.5-2C567.4,336.3,567.4,337.4,567,338.6z M564.5,325.9
				c0.4-0.2,1.1,0.6,1.7,1.8c0.6,1.2,0.8,2.3,0.4,2.5c-0.4,0.2-1.1-0.6-1.7-1.8S564.1,326.1,564.5,325.9z M563.4,336.2
				c-1.2,0.6-2.3,0.8-2.5,0.4s0.6-1.1,1.8-1.7s2.3-0.8,2.5-0.4S564.6,335.6,563.4,336.2z M563,330.6c1.2,0.4,2.1,1.1,2,1.5
				s-1.2,0.4-2.5,0c-1.2-0.4-2.1-1.1-2-1.5C560.7,330.1,561.8,330.2,563,330.6z M554,336.4c-0.1,0.4-1.2,0.4-2.5,0
				c-1.2-0.4-2.1-1.1-2-1.4c0.1-0.4,1.2-0.4,2.5,0S554.2,336.1,554,336.4z M551,330.6c1.1-0.6,2.2-0.8,2.4-0.5
				c0.2,0.4-0.6,1.2-1.7,1.8c-1.1,0.6-2.2,0.8-2.4,0.5S549.9,331.3,551,330.6z M549.7,338.6c0.6,1.2,0.8,2.2,0.4,2.4
				c-0.4,0.2-1.1-0.6-1.7-1.8c-0.6-1.1-0.8-2.2-0.4-2.4C548.4,336.6,549.1,337.4,549.7,338.6z M547.4,328.4c0.4-1.2,1-2.2,1.4-2
				c0.4,0.1,0.4,1.2,0,2.5s-1,2.2-1.4,2C547,330.8,547,329.7,547.4,328.4z M547.2,332c1,0.3,1.6,1.5,1.2,2.6
				c-0.4,1.1-1.5,1.7-2.5,1.3c-1-0.3-1.6-1.5-1.2-2.6C545,332.3,546.1,331.7,547.2,332z M545.6,339.5c-0.4,1.2-1,2.1-1.4,2
				s-0.4-1.2,0-2.5c0.4-1.2,1-2.1,1.4-2C546,337.2,545.9,338.3,545.6,339.5z M542.8,327c0.4-0.2,1.1,0.6,1.8,1.7
				c0.6,1.1,0.8,2.2,0.5,2.4c-0.4,0.2-1.2-0.6-1.8-1.7C542.6,328.3,542.4,327.2,542.8,327z M543.7,335.5c0.2,0.4-0.6,1.1-1.7,1.7
				c-1.2,0.6-2.2,0.8-2.4,0.4s0.6-1.1,1.7-1.7S543.5,335.1,543.7,335.5z M541.4,331.6c1.2,0.4,2.1,1,2,1.4s-1.2,0.4-2.5,0
				c-1.2-0.4-2.2-1-2-1.4C539.1,331.3,540.2,331.3,541.4,331.6z M527.2,342.4c1.3,0.1,2.6,0.5,3.8,1.2c0.3,0.2,0.6,0.3,0.8,0.5
				l0.7,0.6c0.5,0.5,1,0.9,1.4,1.4c1.7,1.9,2.7,4,4.2,4.9c0.5,0.3,0.5,0.3,1.2,0.6c0.3,0.1,0.8,0.2,1.2,0.3c0.9,0.1,1.8,0,2.8-0.2
				s2.1-0.5,2.8-0.9c0.9-0.5,1.8-1.2,3-1.8c0.6-0.3,1.3-0.6,2.1-0.7s1.5-0.1,2.3,0c1.4,0.2,2.6,0.8,3.7,1.4c1.1,0.6,2.2,1.5,3,2.5
				s1.4,2,2,3c1.2,2,2.3,4,3.9,5.7c2,0.4,3.6,0.2,5-0.4c1.3-0.6,3.2-1.7,5.3-2c1.1-0.1,2.3-0.2,3.7,0.5c0.5,0.2,0.3,0.2,0.8,0.5
				c0.3,0.3,0.6,0.5,0.8,0.8c0.4,0.5,0.6,1,0.9,1.5c0.4,1,0.6,2,0.7,3c0,1,0,2.1-0.5,3c-0.3-1-0.8-1.7-1.2-2.5
				c-0.5-0.7-1-1.4-1.5-2.1c-0.3-0.3-0.5-0.6-0.8-0.8c-0.1-0.1-0.2-0.1-0.3-0.1c0.1,0.1-0.5-0.2-0.4-0.1c-0.3-0.1-1-0.1-1.7,0
				s-1.5,0.3-2.4,0.5s-1.7,0.5-2.9,0.6c-1.1,0.1-2.2-0.1-3.2-0.5c-1-0.5-1.8-1.1-2.4-2c-4.3-2.1-6.6-7.2-10.3-8.6
				c-0.9-0.4-1.9-0.7-2.8-0.8c-1-0.1-1.4,0.1-2.3,0.6c-0.8,0.5-1.7,1.2-2.9,1.9c-1.3,0.7-2.5,1-3.7,1.4c-1.3,0.3-2.7,0.4-4.1,0.2
				c-0.7-0.1-1.4-0.3-2.1-0.6c-0.4-0.2-1.4-0.7-1.9-1.1c-2.3-1.9-3.2-4.3-4.4-6c-0.3-0.4-0.6-0.8-0.9-1.2L530,346l-0.6-0.5
				c-0.8-0.6-1.7-1.1-2.6-1.4c-2-0.6-4.2,0.1-6.3,1.2C522.2,343.7,524.5,342.3,527.2,342.4z M583.2,173.9c1.2-1.7,3-2.6,5.3-2.6
				c5.3-0.2,11.7,4.2,13.4,7.9c1.5,3.2,2.5,7.9,1,11.2c-0.4,1-1,1.9-1.6,2.6c0,0-0.7,0.8-0.9,0.8c-0.1,0-0.2-0.1-0.2-0.2
				c-0.5-8.2-5-13-8.7-15.6c-4.1-2.8-8-3.6-8.1-3.7c-0.1,0-0.1-0.1-0.2-0.1C583.1,174,583.1,174,583.2,173.9z M587.7,193.8
				c0,0.1,0,0.2-0.2,0.3l0,0c-0.1,0-0.2-0.1-0.2-0.2c-0.1-0.1-0.6-0.5-1-0.7c-0.6-0.4-1.1-0.7-1.3-1c-0.7-1.1-0.6-2-0.3-2.6
				c0.6-1.1,2.1-1.9,3.7-1.9c1.1,0,2,0.3,2.6,0.9c0.1,0.1,0.1,0.1,0.1,0.2c0,0.1-0.1,0.1-0.2,0.1c0,0-1.9,0.4-2.8,1.8
				C587.5,191.7,587.4,192.7,587.7,193.8z M586.8,195.1L586.8,195.1c5.9-2.8,5.9-7.3,5.9-7.3c0-0.1,0.1-0.2,0.2-0.2
				c0.1,0,0.2,0.1,0.2,0.2l0,0l0,0l0,0c0,0.2,0.5,0.6,0.8,0.9c0.5,0.4,0.9,0.9,1.1,1.3c0.3,0.9,0.1,1.8-0.2,2.6
				c-0.9,2.4-2.5,3.8-4.5,3.9l0,0c-0.4,0-1.1-0.3-1.9-0.6c-0.6-0.2-1.2-0.5-1.4-0.5l0,0c-0.1,0-0.2,0-0.3-0.1
				C586.7,195.3,586.7,195.2,586.8,195.1z M582.5,183.9c-0.1,0-0.1-0.1-0.2-0.1c0-0.1,0-0.2,0-0.2c0.1-0.1,2.4-2.7,5.8-2.8
				c1.6,0,3.3,0.5,4.8,1.6c0,0,5,3.4,3.1,8.4c0,0.1-0.1,0.1-0.2,0.1l0,0c-0.1,0-0.2-0.1-0.2-0.2
				C595.6,190.7,594.5,185.7,582.5,183.9z M583.6,184.5c1.4,0,2.5,0.4,3.2,1.4c0,0.1,0.1,0.1,0,0.2c0,0.1-0.1,0.1-0.2,0.1
				c0,0-4.5,0.8-8.4,10.6c0,0.1-0.1,0.1-0.2,0.1h-0.1c-0.1,0-0.1-0.1-0.1-0.2c-0.1-0.1-0.5-0.7-0.6-0.9c-0.2-0.2-0.2-0.3-0.2-0.3
				c-0.7-1.2-1.1-2.4-1.1-3.7c0-2.6,1.3-4.8,3.6-6.1C580.8,185,582.3,184.5,583.6,184.5z M583.4,190.8c0.1,0,0.2,0,0.2,0.1
				s0.1,0.2,0,0.2c0,0-2.2,4.7,4.6,12.3c0,0,0.1,0.1,0.1,0.2c0,0.1-0.1,0.2-0.2,0.2l0,0c0,0,0,0-0.1,0c-0.2,0-0.6,0.1-0.8,0.1
				s-0.3,0-0.3,0.1c-0.1,0-0.1,0-0.2,0c-1,0-1.8-0.1-2.7-0.5c-2.5-1.1-4-3.3-4.1-6.1C579.9,194.7,580.8,191.4,583.4,190.8z
				 M585.4,198.1L585.4,198.1c0-0.1,0-0.2,0.1-0.3c0.1,0,0.2,0,0.3,0.1s0.9,0.3,3.2,0.3h0.1c3.4-0.1,7.9-3.2,9.4-6.5
				c0-0.1,0.1-0.1,0.2-0.1c0.1,0,0.2,0.1,0.2,0.2c0,0.1,1.8,6.4-3.6,9c-0.1,0-1.9,0.8-4.1,0.9C588.4,201.8,586.4,200.5,585.4,198.1z
				 M570.2,195.4c-0.1,0-0.1-0.1-0.1-0.2c0-0.2-0.4-0.9-0.6-1.5c-0.5-1.1-0.8-1.9-0.9-2.2c-0.1-1.2,0-2.4,0.4-3.9
				c0.8-2.7,2.3-5.2,4.4-6.9c2.4-2,6.1-3.3,9.7-3.4c0.6,0,1.2,0,1.7,0c1.5,0.1,3,0.5,4.3,1.1c0.2,0.1,0.3,0.2,0.5,0.3
				c0.3,0.2,0.6,0.4,0.9,0.4c0.1,0,0.2,0.1,0.2,0.2c0,0.1-0.1,0.2-0.2,0.2l0,0c-0.3,0-0.5,0-0.8,0c-4.5,0.1-11.3,5.2-11.4,5.3l0,0
				c-4.1,2.3-7.8,10.4-7.8,10.5C570.5,195.3,570.4,195.4,570.2,195.4C570.3,195.4,570.3,195.4,570.2,195.4z M586.6,212.9
				c-0.8,0.2-1.5,0.2-2.3,0.3l0,0c-8.9,0.3-12.9-8.6-12.9-8.7c-4-9.3,3.5-14.9,3.6-14.9c0.1-0.1,0.2-0.1,0.3,0s0.1,0.1,0.1,0.2
				c-1.4,4.7,1.7,12,1.8,12c2.4,4.7,9.5,10.7,9.6,10.8s0.1,0.1,0.1,0.2C586.8,212.9,586.7,212.9,586.6,212.9z M593.1,212.3
				L593.1,212.3c-6.8-0.3-10.2-3.3-11.9-5.7c-1.8-2.6-2-5.1-2-5.2c0-0.1,0-0.2,0.1-0.2s0.2,0,0.2,0.1c4.6,5,13.8,5.5,13.9,5.6
				c0.5,0.1,1,0.1,1.5,0.1c5-0.1,10.4-3.9,10.5-3.9s0.2,0,0.2,0c0.1,0,0.1,0.1,0.1,0.2C605,211.8,593.2,212.3,593.1,212.3z
				 M607.1,199c-2.3,3-4.7,4.8-7.1,5.5c-0.8,0.2-1.7,0.3-2.6,0.4c-1.3,0-2.7-0.1-3.9-0.4c-0.1,0-0.2-0.1-0.1-0.3
				c0-0.1,0.1-0.2,0.3-0.1l0,0h0.1c0.9,0,2.4-1.6,3.3-2.5c0.2-0.2,0.4-0.4,0.5-0.5c3.7-3.5,6-7.8,6.7-12.6c0.3-2.3,0.2-4.7-0.3-7.1
				c0-0.1,0-0.2,0.2-0.3c0.1,0,0.2,0,0.2,0.1c0.1,0.1,0.7,0.4,1.1,0.7c0.8,0.4,1.1,0.7,1.2,0.7c2,1.8,2.9,4.2,2.9,7.1
				C609.4,192.8,609.1,196.4,607.1,199z"/>
			<path class="st4" d="M566.1,367.4L566.1,367.4L566.1,367.4L566.1,367.4c-0.2,0.1-0.3,0.2-0.2,0.3c0.1,0,0.1,0,0.2,0
				C566.2,367.6,566.2,367.5,566.1,367.4z"/>
		</g>
	</g>
	<g>
		<g>
			<path class="st3" d="M428.3,220.6c0,0,4.7,31.8-8.7,43.5c0,0-3.3,4.2-6.8,7.3c0,0,19.6,7.8,29.6-3.7L428.3,220.6z"/>
			<path d="M428.3,220.6c0.9,3.7,1.5,7.6,1.8,11.4c0.2,1.9,0.3,3.9,0.3,5.8c0,1.9-0.1,3.9-0.2,5.9c-0.3,3.9-0.9,7.9-2.3,11.7
				c-1.3,3.8-3.4,7.6-6.6,10.6l0.3-0.4c-0.6,0.7-1.1,1.4-1.6,2c-0.5,0.7-1.1,1.3-1.7,2c-1.1,1.3-2.4,2.6-3.7,3.8l-0.8-4.6
				c1,0.4,2.3,0.7,3.5,1s2.4,0.6,3.6,0.8c2.4,0.4,4.9,0.6,7.3,0.5s4.7-0.6,6.8-1.4c2.1-0.8,3.9-2.1,5.5-3.8l-0.5,2.5
				c-1-3.7-2-7.5-2.9-11.2c-0.9-3.8-1.7-7.6-2.5-11.5c-0.8-4-1.7-8.1-2.7-12.3C430.7,229.2,429.6,224.9,428.3,220.6z M428.3,220.6
				c1.1,3.5,2.3,7.1,3.6,10.7c1.3,3.6,2.8,7.4,4.3,11.3c1.5,3.9,3.1,7.9,4.5,12c1.5,4.1,2.8,8.2,4.2,12.3c0.3,0.9,0.1,1.8-0.5,2.5
				l0,0c-1,1.1-2.1,2.2-3.3,3.1c-1.2,0.9-2.6,1.7-4,2.3c-2.8,1.2-5.7,1.8-8.6,1.9c-2.9,0.2-5.7-0.1-8.5-0.6
				c-1.4-0.2-2.8-0.5-4.1-0.9c-1.4-0.4-2.6-0.8-4.1-1.3l0,0c-1.4-0.5-2.1-2.1-1.5-3.5c0.2-0.4,0.4-0.8,0.7-1.1
				c1.2-1,2.3-2.1,3.4-3.3c0.6-0.6,1.1-1.2,1.6-1.8c0.5-0.6,1.1-1.2,1.6-1.8l0.1-0.1c0.1-0.1,0.2-0.2,0.3-0.3
				c2.5-2.1,4.5-5.1,5.9-8.4c1.4-3.3,2.4-6.9,3.1-10.5c0.7-3.7,1.1-7.4,1.3-11.2C428.3,228.3,428.4,224.4,428.3,220.6z"/>
		</g>
		<path d="M466.4,182c-6,2.2-11.8,5.2-16.4,9.6c-4.6,4.4-8.3,9.7-11.4,15.3c-3,5.6-5.3,11.6-6.5,17.8c-1.1,6.2-0.8,12.5,0.3,18.6
			c2.3,12.4,7.7,24,11.7,36.5c2.1,6.2,3.8,12.6,4.6,19.4c0.2,1.7,0.4,3.4,0.4,5.1c0.1,1.6,0.1,3.3,0.2,4.9c0,3.3-0.1,6.6-0.3,9.9
			c-0.4,6.6-1.3,13.1-2.4,19.5s-2.7,12.8-4.4,19.1c-3.5,12.6-7.7,24.7-12.3,36.9l-7.4,17.9c-1.2,3-2.5,6-3.8,8.9s-2.6,6-4.4,8.8
			c-3.1,5.5-5.6,11.4-6.7,17.6c-0.5,3.1-0.7,6.2-0.3,9.2c0.4,3,1.5,5.9,3.4,8.3v0.1v0.1c0.4,0.6,1.1,1.2,1.6,1.3
			c0.5,0.1,1.1-0.1,1.7-0.7c1.2-1.2,2.2-3,3-4.8c0.4-0.9,0.8-1.9,1.1-2.9c0.4-1,0.8-2.1,1.3-3c0.9-2,2.1-3.9,3.3-5.7
			c4.9-7.2,11-13.2,17.5-18.8c3.2-2.8,6.6-5.4,10-8s7.1-4.9,10.4-7.2c6.7-4.8,13.1-10.1,19.1-15.9c6-5.7,11.4-12,16.5-18.5
			c2.5-3.3,4.9-6.6,7.2-10.1c2.2-3.4,4.4-7,6.5-10.6c8.4-14.4,15.8-29.4,21.7-44.8c2.9-7.7,5.4-15.6,7.4-23.6c1-4,1.8-8,2.5-12.1
			s1.3-8.2,1.8-12.3c0.9-8.2,1.6-16.5,1.6-24.7c0.1-8.3-0.4-16.5-1.7-24.6c-0.6-4-1.5-8.1-2.7-11.9c-1.2-3.8-3-7.3-5.4-10.5
			c-4.8-6.4-11.8-11.1-19.5-14c-3.9-1.4-7.9-2.5-12-3.2c-4.1-0.6-8.3-0.9-12.5-0.9C482.7,177.9,474.3,179.3,466.4,182z M466.1,181.3
			c8-2.9,16.4-4.2,24.9-4.6c8.5-0.3,17,0.6,25.3,3.1c8.2,2.5,16.1,6.9,21.9,13.7c2.9,3.4,5.2,7.3,6.9,11.4c1.6,4.1,2.8,8.2,3.8,12.5
			c3.7,16.9,3.7,34.3,2,51.3c-0.4,4.2-1,8.5-1.7,12.7c-0.7,4.3-1.5,8.5-2.5,12.7c-2,8.4-4.6,16.6-7.6,24.6
			c-6.1,16.1-14.1,31.2-22.9,45.7c-2.2,3.6-4.4,7.2-6.8,10.8c-2.4,3.6-5,7-7.7,10.4c-5.4,6.7-11.3,13-17.6,18.7
			c-6.4,5.8-13.1,11.1-20.3,15.8c-3.7,2.4-7.2,4.4-10.7,6.7c-3.5,2.3-6.8,4.7-10.1,7.3c-6.5,5.1-12.7,10.8-17.5,17.4
			c-1.2,1.6-2.3,3.4-3.2,5.1c-0.5,0.9-0.9,1.8-1.3,2.7c-0.4,1-0.8,2-1.3,3c-0.9,2-1.9,4-3.8,5.7c-0.5,0.4-1,0.8-1.8,1.1
			c-0.7,0.3-1.5,0.3-2.3,0.1c-0.8-0.2-1.4-0.6-1.9-1c-0.5-0.5-0.9-0.9-1.3-1.5l0.1,0.1c-2-2.8-3.3-6.1-3.7-9.5
			c-0.5-3.4-0.2-6.7,0.4-10c1.3-6.5,3.7-12.7,6.9-18.4c1.6-2.7,2.8-5.6,4.1-8.6c1.2-3,2.4-6,3.5-9c2.3-6,4.4-12.1,6.6-18.2
			c7.8-24.4,14.5-49.4,16-74.6c0.2-3.1,0.3-6.3,0.2-9.4l-0.1-4.7c0-1.6-0.1-3-0.3-4.6c-0.6-6.1-2.2-12.2-3.9-18.3
			c-3.5-12.2-8.1-24.5-9.8-37.7c-0.8-6.6-0.7-13.4,1-19.8c1.7-6.4,4.4-12.4,7.7-18c3.3-5.6,7.3-10.8,12.1-15.2
			C454.1,186.4,460.1,183.4,466.1,181.3z"/>
		<path class="st5" d="M543.2,218.5c-0.7-4-1.5-8.1-2.7-11.9c-1.2-3.8-3-7.3-5.4-10.5c-4.8-6.4-11.8-11.1-19.5-14
			c-3.9-1.4-7.9-2.5-12-3.2c-4.1-0.6-8.3-0.9-12.5-0.9c-8.4,0-16.7,1.4-24.7,4.1c-6,2.2-11.8,5.2-16.4,9.6
			c-4.6,4.4-8.3,9.7-11.4,15.3c-3,5.6-5.3,11.6-6.5,17.8c-1.1,6.2-0.8,12.5,0.3,18.6c2.3,12.4,7.7,24,11.7,36.5
			c2.1,6.2,3.8,12.6,4.6,19.4c0.2,1.7,0.4,3.4,0.4,5.1c0.1,1.6,0.1,3.3,0.2,4.9c0,3.3-0.1,6.6-0.3,9.9c-0.4,6.6-1.3,13.1-2.4,19.5
			s-2.7,12.8-4.4,19c-3.5,12.6-7.7,24.7-12.3,36.9l-7.4,17.9c-1.2,3-2.5,6-3.8,8.9s-2.6,6-4.4,8.8c-3.1,5.5-5.6,11.4-6.7,17.6
			c-0.5,3.1-0.7,6.2-0.3,9.2c0.4,3,1.5,5.9,3.4,8.3v0.1v0.1c0.4,0.6,1.1,1.2,1.6,1.3c0.5,0.1,1.1-0.1,1.7-0.7c1.2-1.2,2.2-3,3-4.8
			c0.4-0.9,0.8-1.9,1.1-2.9c0.4-1,0.8-2.1,1.3-3c0.9-2,2.1-3.9,3.3-5.7c4.9-7.2,11-13.2,17.5-18.8c3.2-2.8,6.6-5.4,10-8
			s7.1-4.9,10.4-7.2c6.7-4.8,13.1-10.1,19.1-15.8c6-5.7,11.4-12,16.5-18.5c2.5-3.3,4.9-6.6,7.2-10.1c2.2-3.4,4.4-7,6.5-10.6
			c8.4-14.4,15.8-29.4,21.7-44.8c2.9-7.7,5.4-15.6,7.4-23.6c1-4,1.8-8,2.5-12.1s1.3-8.2,1.8-12.3c0.9-8.2,1.6-16.5,1.6-24.7
			C544.9,234.8,544.5,226.5,543.2,218.5z"/>
		<path class="st6" d="M499.5,314.6c-4.1,50.2-31.9,83.1-31.9,83.1c-5.8,13.2-1.7,12-1.7,12c8.7-12.2,20.1-26.3,28.1-42.3
			c10.6-21.4,23.8-69.1,20.1-93.7c0,0-1.7-2.8-7.2-2.1C498,272.7,499.5,314.6,499.5,314.6z"/>
		<g>
			<path d="M560,243.4c-0.3-0.8-0.6-1.5-0.8-2.2c-0.7-2.5-1-5.3-1.1-7.9c-1-19.1-3.5-38.8-14.9-54.4c-3-4.6-6.5-8.9-10.9-12.5
				c-5.1-4-11.4-6.3-17.6-7.4c-3.1-0.5-6.3-0.9-9.5-0.9c-3.1,0-6.1,0-9-0.3s-5.7-0.9-7.7-2.3c-0.8-0.6-1.4-1.3-1.9-2.1
				c-4.5-15.4-5.6-28,2.5-42.4c5.2-9.4,13.5-19.3,21.2-18.9c2.8,0.1,5.6,1.7,8.3,4.7c0.4,0.7,1.8,3.3,1.8,5.9
				c-1.5,2.1-4.6,3.5-7.9,4.3c-0.9,0.2-1.9,0.4-2.9,0.6s-1.9,0.3-3,0.4c-1.3,0.1-2.6,0.4-3.9,1s-2.6,1.5-3.6,2.9
				c-0.7,1.1-1.2,2.4-1.3,3.6c-0.4,0.8-0.8,1.6-1,2.5c-0.9,4.5,1.9,9.3,7.5,12.4c0.5,0.3,1,0.4,1.5,0.5c0,0,0.3,0,0.9,0.1
				c5.4,0.3,23.8,0.3,32.5-10.2c4.3-5.2,5.4-11.9,3.4-20.1c-0.3-1.9-0.8-3.9-1.5-6.1c0-0.1-0.1-0.3-0.2-0.4c0-0.2-0.1-0.3-0.1-0.5
				c-0.2-0.6-0.3-1.2-0.5-1.8L540,91l-0.3-0.9c-0.8-2.3-1.8-4.6-3-6.9c-2.3-4.4-5.4-8.6-9.7-11.7c-2-1.5-4.6-2.8-7.1-3.5
				c-2.6-0.7-5.2-0.9-7.7-0.8c-5.1,0.2-10,1.7-14.5,3.8c-2.3,1.1-4.4,2.3-6.5,3.7c-2.1,1.4-4,3.1-5.7,4.7c-3.6,3.3-7,6.7-10,10.5
				c-1.1,1.4-2.2,2.9-3.2,4.4c-2.8,3.6-5.1,7.3-6.9,11c-3.5,7.2-4.4,15.8-4.7,21.7c-0.2,4.1,0,8.4,0.3,12.5
				c0.4,8.5,0.8,16.4-1.7,23.8c-2.2,6.3-7.4,10.3-13,14.5c-2.4,1.8-4.8,3.6-7.1,5.7c-5.2,4.7-9.3,11-12.9,19.8l-0.5,1.2
				c-2.2,5.3-4.3,10.3-3.2,16.9c0.3,1.8,1.8,3.1,3.6,3.1l30.1-0.1c1.4,0,2.7-0.9,3.3-2.1c0.5,1.5,1.9,2.5,3.4,2.5
				c17.8,0.2,28.1-1.5,30.6-5.1c0.8-1.2,1-2.5,0.7-3.9c14.3,4.3,15,21,15,21.8c0,0.4,0.1,0.7,0.2,1c0,0.1,3.9,12.5-9.8,22.9
				c-1.1,0.8-1.7,2.3-1.4,3.6c0.3,1.4,1.3,2.5,2.7,2.9c5.1,1.4,10.3,2.2,15.5,2.4c10.9,0.5,21.2-1.5,29.8-5.8
				c3.7-1.8,7.2-3.7,11.1-6C564,254.4,561.4,247.2,560,243.4z"/>
			<g>
				<path class="st3" d="M463.7,217L463.7,217L463.7,217L463.7,217z"/>
				<path class="st3" d="M502.6,260.3L502.6,260.3c0.1,0.1,0.1,0.1,0.2,0.1c0.1-0.1,0.2-0.1,0.2-0.2c-0.1,0-0.2,0-0.3-0.1
					C502.7,260.2,502.7,260.2,502.6,260.3z"/>
				<path class="st3" d="M513.7,233.4L513.7,233.4L513.7,233.4L513.7,233.4z"/>
				<path class="st3" d="M427,216.8c0-0.1,0-0.2,0-0.2h-0.3L427,216.8z"/>
				<path class="st3" d="M557,244.1c-0.4-1.4-1-2.8-1.5-4.3s-0.9-3.1-1.2-4.6c-0.5-3.1-0.6-6.2-0.8-9.2s-0.5-6.1-0.9-9.1
					c-0.7-6.1-1.8-12.1-3.4-17.9c-1.7-5.8-4-11.4-7.1-16.5c-1.5-2.6-3.3-5-5.3-7.2c-2-2.3-4-4.4-6.4-6.1c-4.7-3.5-10.3-5.5-16.2-6.4
					c-2.9-0.4-5.9-0.7-8.9-0.7s-6.1,0.1-9.4-0.1c-3.2-0.3-6.7-0.8-9.8-2.9c-1.5-1-2.9-2.6-3.7-4.3c-0.2-0.4-0.4-0.8-0.6-1.3
					l-0.4-1.2l-0.7-2.2c-1.8-6-3.1-12.2-3.4-18.6c-0.3-6.4,0.6-13,2.8-19c2.2-6.1,5.4-11.6,9.2-16.8c1.9-2.6,4-5,6.5-7.2
					s5.3-4.2,8.6-5.4c3.3-1.2,7.4-1.4,10.8-0.1c3.5,1.3,6.2,3.6,8.5,6.1l0,0c0.1,0.1,0.2,0.2,0.2,0.3c0.8,1.2,1.2,2.2,1.7,3.3
					c0.4,1.1,0.8,2.3,1,3.5c0.5,2.5,0.4,5.3-0.9,7.8c-1.2,2.5-3.3,4.5-5.4,5.7c-2.1,1.3-4.4,2-6.6,2.6c-1.1,0.3-2.2,0.5-3.3,0.7
					c-1.1,0.2-2.3,0.3-3.3,0.4c-1.7,0.2-3.1,0.8-3.6,1.6c-0.2,0.4-0.4,0.7-0.3,1.2c0,0.5,0.3,1.1,0.7,1.7c0.7,1.1,1.9,2.1,3.3,2.9
					c3.7,0.2,7.6,0,11.3-0.5c3.9-0.6,7.8-1.6,11.1-3.4c3.3-1.7,5.9-4.3,7.1-7.6c1.2-3.3,1-7.2,0.1-11c0-0.1,0-0.1,0-0.2
					c-0.7-4.2-2.3-8.8-4.3-12.7c-2-4-4.7-7.6-8.1-10.2c-3.3-2.7-7.5-3.8-11.9-3.7c-4.4,0.1-8.8,1.3-13,3.1c-2.1,0.9-4.1,2-6,3.2
					s-3.6,2.6-5.4,4.2c-3.5,3.1-6.8,6.4-9.8,9.9c-3,3.6-5.6,7.4-7.7,11.5c-2,4-3.2,8.6-3.8,13.2c-1.5,9.2-0.2,18.7-0.3,28.3
					c-0.1,4.8-0.5,9.7-1.9,14.4c-1.3,4.7-4.3,9-7.9,12.2c-3.6,3.3-7.6,5.9-11.3,8.8c-3.8,2.9-7,6.3-9.5,10.2
					c-2.6,3.9-4.6,8.2-6.4,12.6c-0.9,2.2-1.8,4.4-2.3,6.7c-0.5,2.2-0.6,4.5-0.3,6.7l29.7,0.1l4-11.7l0.1-0.1c0,0,0,0,0.1,0.1
					l2.8,12.1c4.9,0,9.7-0.1,14.6-0.4c2.4-0.2,4.9-0.4,7.3-0.9c1.2-0.2,2.4-0.5,3.5-0.9c0.3-0.1,0.6-0.2,0.8-0.4l0,0
					c0.3-0.1,0.5-0.3,0.8-0.5c0.1-0.1,0.2-0.2,0.3-0.3c0.2-0.2,0.3-0.5,0.3-0.8c0-0.1,0-0.3-0.1-0.5c-0.1-0.3-0.2-0.6-0.3-1
					c0-0.1,0-0.1-0.1-0.2c-0.1-0.3-0.1-0.5-0.2-0.8c0-0.1,0-0.1,0-0.2c0-0.1,0-0.3,0-0.4v-0.1c0-0.1,0-0.2,0-0.3s0-0.2,0.1-0.3
					c0-0.1,0.1-0.3,0.2-0.4c0,0,0-0.1,0.1-0.1l0.1-0.1c0.1-0.1,0.2-0.2,0.3-0.3c0.1-0.1,0.1-0.1,0.2-0.1s0.2-0.1,0.3-0.1
					c0.1,0,0.1-0.1,0.2-0.1h0.1c0.2,0,0.3-0.1,0.5-0.1c1.5-0.2,3.1,0.4,4.5,0.9c0.2,0.1,0.5,0.2,0.7,0.3s0.5,0.2,0.7,0.3
					c0.7,0.3,1.4,0.6,2,1c0.2,0.1,0.3,0.2,0.5,0.3c1.8,1,3.4,2.3,4.8,3.8c2.4,2.5,4.2,5.6,5.5,8.9c1.3,3.3,2.1,6.7,2.3,10.2
					c0.7,2.5,0.8,5.1,0.6,7.7c-0.2,2.6-0.9,5.1-1.9,7.5c-2,4.6-5.4,8.6-9.3,11.6c11.7,2.9,24.2,3.1,35.7-0.8c2.9-1,5.6-2.3,8.3-3.7
					c2.7-1.4,5.4-2.9,8-4.5c1.4-0.7,2.2-1.6,2.4-3C557.7,246.9,557.4,245.5,557,244.1z"/>
				<polygon class="st3" points="456.8,216.6 456.7,216.6 456.7,216.7 				"/>
				<path class="st3" d="M508,121c-0.2-0.1-0.3-0.2-0.5-0.3c-0.2,0-0.4,0-0.6,0L508,121z"/>
			</g>
		</g>
		<path class="st6" d="M505.2,166.2c7.7-3,20.5,4.5,26.7,8.7c9.5,6.4,12.8,15.1,14.2,26.1c0.4,3.1,2,9-0.9,10.8
			c-5.7,3.5-6.5-2.3-6.3-6.3c0.4-8.9-2.1-15.5-8.8-21.6c-7.4-6.8-15.7-5.8-25.6-6.5c-3.5-0.2-6.4-2-5.9-6.2c0.5-3.7,4.4-4.2,6.9-5.3
			"/>
		<path class="st6" d="M432.6,208.2c-0.3-3.7,2.5-7.8,4-10.9c1.3-2.7,2.2-5.8,3.8-8.4c1.4-2.2,4.3-5.7,6.7-6.9
			c3-1.6,7.1-0.8,5.3,3.6c-1,2.4-4.5,4.5-6.1,6.8c-2.2,3-3.2,5.5-3.9,9.2c-0.5,2.6,0.1,7.1-2.9,8.8c-3.2,1.8-5.2,0.5-6.9-1.5V208.2z
			"/>
		<g>
			<g>
				<defs>
					<path id="SVGID_1_" d="M466.8,182c-6,2.2-11.8,5.2-16.4,9.6c-4.6,4.4-8.3,9.7-11.4,15.3c-3,5.6-5.3,11.6-6.5,17.8
						c-1.1,6.2-0.8,12.5,0.3,18.6c2.3,12.4,7.7,24,11.7,36.5c2.1,6.2,3.8,12.6,4.6,19.4c0.2,1.7,0.4,3.4,0.4,5.1
						c0.1,1.6,0.1,3.3,0.2,4.9c0,3.3-0.1,6.6-0.3,9.9c-0.4,6.6-1.3,13.1-2.4,19.5s-2.7,12.8-4.4,19.1c-3.5,12.6-7.7,24.7-12.3,36.9
						l-7.4,17.9c-1.2,3-2.5,6-3.8,8.9c-1.4,2.9-2.6,6-4.4,8.8c-3.1,5.5-5.6,11.4-6.7,17.6c-0.5,3.1-0.7,6.2-0.3,9.2
						c0.4,3,1.5,5.9,3.4,8.3v0.1v0.1c0.4,0.6,1.1,1.2,1.6,1.3c0.5,0.1,1.1-0.1,1.7-0.7c1.2-1.2,2.2-3,3-4.8c0.4-0.9,0.8-1.9,1.1-2.9
						c0.4-1,0.8-2.1,1.3-3c0.9-2,2.1-3.9,3.3-5.7c4.9-7.2,11-13.2,17.5-18.8c3.2-2.8,6.6-5.4,10-8s7.1-4.9,10.4-7.2
						c6.7-4.8,13.1-10.1,19.1-15.8c6-5.7,11.4-12,16.5-18.5c2.5-3.3,4.9-6.6,7.2-10.1c2.2-3.4,4.4-7,6.5-10.6
						c8.4-14.4,15.8-29.4,21.7-44.8c2.9-7.7,5.4-15.6,7.4-23.6c1-4,1.8-8,2.5-12.1s1.3-8.2,1.8-12.3c0.9-8.2,1.6-16.5,1.6-24.7
						c0.1-8.3-0.4-16.5-1.7-24.6c-0.6-4-1.5-8.1-2.7-11.9c-1.2-3.8-3-7.3-5.4-10.5c-4.8-6.4-11.8-11.1-19.5-14
						c-3.9-1.4-7.9-2.5-12-3.2c-4.1-0.6-8.3-0.9-12.5-0.9C483.1,178,474.8,179.4,466.8,182z"/>
				</defs>
				<clipPath id="SVGID_2_">
					<use xlink:href="#SVGID_1_"  style="overflow:visible;"/>
				</clipPath>
				<path class="st7" d="M552.8,272.9c0-0.1,0.1-0.2,0-0.3c-0.1-0.1-0.2-0.2-0.4-0.1c-1.3,0.7-2.8,1.1-4.3,1.5s-3,0.7-4.5,0.9
					c-3,0.5-6.1,0.7-9.1,0.8c-3,0.2-6.1,0.2-9.2,0c-3.1-0.1-6.1-0.3-9.2-0.5c-0.1,0-0.2,0-0.2,0.1c-0.1,0.1-0.1,0.3,0,0.4l0.1,0.1
					c2.8,2.3,5.9,3.6,9,4.5s6.4,1.2,9.6,1.1c3.2-0.1,6.5-0.8,9.7-2c3.1-1.3,6.3-3.1,8.2-6.4L552.8,272.9z M552.1,284.7
					c0-0.1,0.1-0.2,0-0.3c-0.1-0.1-0.2-0.2-0.4-0.1c-1.3,0.7-2.8,1.1-4.3,1.5s-3,0.7-4.5,0.9c-3,0.5-6.1,0.7-9.1,0.8
					c-3,0.2-6.1,0.2-9.2,0c-3.1-0.1-6.1-0.3-9.2-0.5c-0.1,0-0.2,0-0.2,0.1c-0.1,0.1-0.1,0.3,0,0.4l0.1,0.1c2.8,2.3,5.9,3.6,9,4.5
					c3.1,0.8,6.4,1.2,9.6,1.1c3.2-0.1,6.5-0.8,9.7-2c3.1-1.3,6.3-3.1,8.2-6.4L552.1,284.7z M551.7,296.5c0-0.1,0.1-0.2,0-0.3
					c-0.1-0.1-0.2-0.2-0.4-0.1c-1.3,0.7-2.8,1.1-4.3,1.5s-3,0.7-4.5,0.9c-3,0.5-6.1,0.7-9.1,0.8c-3.1,0.2-6.1,0.2-9.2,0
					c-3.1-0.1-6.1-0.3-9.2-0.5c-0.1,0-0.2,0-0.2,0.1c-0.1,0.1-0.1,0.3,0,0.4l0.1,0.1c2.8,2.3,5.9,3.6,9,4.5s6.4,1.2,9.6,1.1
					c3.2-0.1,6.5-0.7,9.7-2c3.1-1.3,6.3-3.1,8.2-6.4L551.7,296.5z M551.9,309.1c0-0.1,0-0.2,0-0.3c-0.1-0.1-0.2-0.2-0.4-0.1
					c-1.3,0.7-2.8,1.1-4.3,1.5s-3,0.7-4.5,0.9c-3,0.5-6.1,0.7-9.1,0.8c-3.1,0.2-6.1,0.2-9.2,0c-3.1-0.1-6.1-0.3-9.2-0.5
					c-0.1,0-0.2,0-0.2,0.1c-0.1,0.1-0.1,0.3,0,0.4l0.1,0.1c2.8,2.3,5.9,3.6,9,4.5s6.4,1.2,9.6,1.1c3.2-0.1,6.5-0.8,9.7-2
					c3.1-1.3,6.3-3.1,8.2-6.4L551.9,309.1z M549.9,320c0-0.1,0-0.2,0-0.3c-0.1-0.1-0.2-0.2-0.4-0.1c-1.3,0.7-2.8,1.1-4.3,1.5
					s-3,0.7-4.5,0.9c-3,0.5-6.1,0.7-9.1,0.8c-3.1,0.2-6.1,0.2-9.2,0c-3.1-0.1-6.1-0.3-9.2-0.5c-0.1,0-0.2,0-0.2,0.1
					c-0.1,0.1-0.1,0.3,0,0.4l0.1,0.1c2.8,2.3,5.9,3.6,9,4.5s6.4,1.2,9.6,1.1c3.2-0.1,6.5-0.7,9.7-2c3.1-1.3,6.3-3.1,8.2-6.4
					L549.9,320z M546.1,331c0-0.1,0-0.2,0-0.3c-0.1-0.1-0.2-0.2-0.4-0.1c-1.3,0.7-2.8,1.1-4.3,1.5s-3,0.7-4.5,0.9
					c-3,0.5-6.1,0.7-9.1,0.8c-3,0.2-6.1,0.2-9.2,0c-3.1-0.1-6.1-0.3-9.2-0.5c-0.1,0-0.2,0-0.2,0.1c-0.1,0.1-0.1,0.3,0,0.4l0.1,0.1
					c2.8,2.3,5.9,3.6,9,4.5s6.4,1.2,9.6,1.1c3.2-0.1,6.5-0.8,9.7-2c3.1-1.3,6.3-3.1,8.2-6.4L546.1,331z M541.6,344.2
					c0-0.1,0.1-0.2,0-0.3c-0.1-0.1-0.2-0.2-0.4-0.1c-1.3,0.6-2.8,1-4.3,1.3s-3,0.6-4.5,0.7c-3,0.4-6.1,0.5-9.1,0.4
					c-3.1,0-6.1-0.1-9.2-0.4c-3.1-0.3-6.1-0.6-9.2-1c-0.1,0-0.2,0-0.2,0.1c-0.1,0.1-0.1,0.3,0,0.4l0.1,0.1c2.7,2.5,5.7,3.9,8.8,4.9
					c3.1,1,6.3,1.5,9.6,1.5c3.2,0,6.5-0.4,9.7-1.6C536.1,349.2,539.4,347.5,541.6,344.2L541.6,344.2z M537.3,355.8
					c0-0.1,0.1-0.2,0-0.3c-0.1-0.1-0.2-0.2-0.4-0.1c-1.3,0.6-2.9,1-4.3,1.3c-1.5,0.3-3,0.6-4.5,0.7c-3,0.4-6.1,0.5-9.1,0.4
					c-3.1,0-6.1-0.1-9.2-0.4c-3.1-0.3-6.1-0.6-9.1-1c-0.1,0-0.2,0-0.2,0.1c-0.1,0.1-0.1,0.3,0,0.4l0.1,0.1c2.7,2.5,5.7,3.9,8.8,4.9
					s6.3,1.5,9.6,1.5c3.2,0,6.5-0.4,9.7-1.6C531.9,360.8,535.1,359.1,537.3,355.8L537.3,355.8z M532.5,367.2c0-0.1,0.1-0.2,0-0.3
					c-0.1-0.1-0.2-0.2-0.4-0.1c-1.3,0.6-2.8,1-4.3,1.3s-3,0.6-4.5,0.7c-3,0.4-6.1,0.5-9.1,0.4c-3.1,0-6.1-0.1-9.2-0.4
					s-6.1-0.6-9.1-1c-0.1,0-0.2,0-0.2,0.1c-0.1,0.1-0.1,0.3,0,0.4l0.1,0.1c2.7,2.5,5.7,3.9,8.8,4.9c3.1,1,6.3,1.5,9.6,1.5
					c3.2,0,6.5-0.4,9.7-1.6C527,372.2,530.3,370.6,532.5,367.2L532.5,367.2z M526.4,379.2c0-0.1,0.1-0.2,0-0.3
					c-0.1-0.1-0.2-0.2-0.4-0.1c-1.3,0.6-2.9,1-4.3,1.3c-1.5,0.3-3,0.6-4.5,0.7c-3,0.4-6.1,0.5-9.1,0.4c-3.1,0-6.1-0.1-9.2-0.4
					s-6.1-0.6-9.1-1c-0.1,0-0.2,0-0.2,0.1c-0.1,0.1-0.1,0.3,0,0.4l0.1,0.1c2.7,2.5,5.7,3.9,8.8,4.9c3.1,1,6.3,1.5,9.6,1.5
					c3.2,0,6.5-0.4,9.7-1.6c3.1-1.2,6.4-2.8,8.5-6H526.4z M519.4,389.8c0.1-0.1,0.1-0.2,0-0.3c-0.1-0.1-0.2-0.2-0.4-0.1
					c-1.3,0.6-2.9,1-4.3,1.3c-1.5,0.3-3,0.6-4.5,0.7c-3,0.3-6.1,0.5-9.1,0.4c-3.1,0-6.1-0.1-9.2-0.4s-6.1-0.6-9.2-1
					c-0.1,0-0.2,0-0.2,0.1c-0.1,0.1-0.1,0.3,0,0.4l0.1,0.1c2.7,2.5,5.7,3.9,8.8,4.9c3.1,1,6.3,1.5,9.6,1.5c3.2,0,6.5-0.5,9.7-1.6
					C514,394.7,517.2,393.1,519.4,389.8L519.4,389.8z M512.1,399.8c0-0.1,0.1-0.2,0-0.3c-0.1-0.1-0.2-0.2-0.4-0.1
					c-1.3,0.6-2.8,1-4.3,1.3s-3,0.6-4.5,0.7c-3,0.4-6.1,0.5-9.1,0.4c-3.1,0-6.1-0.1-9.2-0.4c-3-0.3-6.1-0.6-9.1-1
					c-0.1,0-0.2,0-0.2,0.1c-0.1,0.1-0.1,0.3,0,0.4l0.1,0.1c2.7,2.5,5.7,3.9,8.8,4.9c3.1,1,6.3,1.5,9.6,1.5c3.2,0,6.5-0.5,9.7-1.6
					C506.6,404.8,509.9,403.2,512.1,399.8L512.1,399.8z"/>
			</g>
		</g>
	</g>
	<g>
		<path class="st5" d="M654.4,337.5c0,0-8.3,1.3-6.7,9.4c-0.1-0.6-3.7-2.4-4.3-3.4C639.4,337.3,650.3,333.4,654.4,337.5z"/>
		<path class="st5" d="M658.4,335.7c0,0,0,8.8-11.8,14c0.6-0.3,5.1,2.1,6.4,2.1c4.2,0,7-3.4,8.4-6.9c0.6-1.5,1.1-3.1,0.5-4.7
			C661.5,338.8,658.4,336.6,658.4,335.7z"/>
		<path class="st5" d="M638.8,327.3c0,0,8.9-9.7,19.6-1.6c0,0,9.1,6.5,5.4,15.6C663.8,341.3,662.2,331.6,638.8,327.3z"/>
		<path class="st5" d="M646.6,331.9c0,0-8.6,0.9-16.9,19.8c0.1-0.2-1.5-2.3-1.7-2.5c-1.2-2.1-1.9-4.4-1.8-6.9
			c0.2-4.8,2.7-8.8,6.9-11C636.9,329.4,643.5,327.6,646.6,331.9z"/>
		<path class="st5" d="M643.9,354.7c0.4,0.9,5.8,0.9,6.5,0.9c6.9,0.1,15.7-5.9,18.7-12c0,0,3.1,11.8-7.2,16.4
			C662,360.1,648.2,365.8,643.9,354.7z"/>
		<path class="st5" d="M658.7,366.8c2,0.6,6.5-4.3,7.9-5.5c7.1-6.4,11.8-14.5,13.6-23.9c0.8-4.5,0.7-9.2-0.2-13.7
			c0,0.1,4,2.5,4.4,2.8c3.7,3.6,5.2,8.3,5,13.4c-0.2,6-1,12.8-5,17.5c-3.5,4.1-8.2,8.5-13.5,9.8
			C667.1,368.2,662.4,367.9,658.7,366.8z"/>
		<path class="st5" d="M681.5,365.4c0,0-12.6,8.3-23.1,6.7c0,0-17.8-1.4-26.4-11.5c0,0,0.5,19.3,25.3,21.1
			C657.3,381.8,679.6,381.8,681.5,365.4z"/>
		<path class="st5" d="M644.9,382.7c0,0-13.4-11.9-17.7-21.1c0,0-5.7-14.1-2.7-23.2c0,0-14.5,10-7.5,27.7
			C617,366,625,385.9,644.9,382.7z"/>
		<path class="st5" d="M640.3,341.3c0,0-4.7,8.9,8.2,24.2c-0.1-0.1-2.1,0.2-2.2,0.2c-1.9,0-3.6-0.3-5.3-1.1
			c-4.7-2.1-7.3-6.4-7.2-11.5C633.7,349,635.2,342.3,640.3,341.3z"/>
		<path class="st5" d="M615,348.4c0,0,7.5-15.5,15.6-19.7c0,0,15.2-10.7,23.7-9.3c-0.8-0.1-2-1.1-2.7-1.5c-2.5-1.3-5.2-2-8-2.3
			c-7.2-0.8-15.8,1.1-21.6,5.7c-4.1,3.2-7.1,7.8-8.6,12.8c-0.7,2.3-1.2,4.8-1,7.3C612.5,342.4,615.2,348.1,615,348.4z"/>
		<path class="st5" d="M640.9,309c0,0,30.4,7.2,31.2,37.9c0,0.2,1.5-1.2,1.6-1.3c1.3-1.3,2.4-3.1,3.2-4.7c2.9-6.2,1.3-15.1-1.3-21.1
			C671.1,309.9,649.7,297.6,640.9,309z"/>
	</g>
</g>
<g>
	<g>
		<path class="st8" d="M876.6,447.5c0.9-0.2,2.2-0.3,3.4-0.3c1.9,0,3.1,0.3,4,1.1c0.7,0.6,1.1,1.5,1.1,2.6c0,1.8-1.1,3-2.6,3.5v0.1
			c1.1,0.4,1.7,1.3,2,2.8c0.4,1.9,0.8,3.2,1.1,3.8h-1.8c-0.2-0.4-0.5-1.6-0.9-3.3c-0.4-1.9-1.1-2.6-2.7-2.7h-1.7v5.9h-1.8V447.5z
			 M878.4,453.7h1.8c1.9,0,3.1-1,3.1-2.6c0-1.8-1.3-2.5-3.2-2.6c-0.9,0-1.5,0.1-1.8,0.2V453.7z"/>
	</g>
	<g>
		<path class="st8" d="M881,467.1c-7,0-12.7-5.7-12.7-12.7s5.7-12.7,12.7-12.7c7,0,12.7,5.7,12.7,12.7S888,467.1,881,467.1z
			 M881,443.4c-6.1,0-11,5-11,11c0,6.1,5,11,11,11c6.1,0,11-5,11-11C892,448.3,887.1,443.4,881,443.4z"/>
	</g>
</g>
</svg>
